G04 #@! TF.FileFunction,Legend,Bot*
%FSLAX46Y46*%
G04 Gerber Fmt 4.6, Leading zero omitted, Abs format (unit mm)*
G04 Created by KiCad (PCBNEW (2015-01-16 BZR 5376)-product) date 5/29/2015 7:58:35 PM*
%MOMM*%
G01*
G04 APERTURE LIST*
%ADD10C,0.100000*%
%ADD11C,0.120000*%
%ADD12C,0.150000*%
G04 APERTURE END LIST*
D10*
D11*
X111594762Y-100691905D02*
X111861429Y-100310952D01*
X112051905Y-100691905D02*
X112051905Y-99891905D01*
X111747143Y-99891905D01*
X111670952Y-99930000D01*
X111632857Y-99968095D01*
X111594762Y-100044286D01*
X111594762Y-100158571D01*
X111632857Y-100234762D01*
X111670952Y-100272857D01*
X111747143Y-100310952D01*
X112051905Y-100310952D01*
X110947143Y-100653810D02*
X111023333Y-100691905D01*
X111175714Y-100691905D01*
X111251905Y-100653810D01*
X111290000Y-100577619D01*
X111290000Y-100272857D01*
X111251905Y-100196667D01*
X111175714Y-100158571D01*
X111023333Y-100158571D01*
X110947143Y-100196667D01*
X110909048Y-100272857D01*
X110909048Y-100349048D01*
X111290000Y-100425238D01*
X110642381Y-100158571D02*
X110451905Y-100691905D01*
X110261429Y-100158571D01*
X109080476Y-100272857D02*
X108966190Y-100310952D01*
X108928095Y-100349048D01*
X108890000Y-100425238D01*
X108890000Y-100539524D01*
X108928095Y-100615714D01*
X108966190Y-100653810D01*
X109042381Y-100691905D01*
X109347143Y-100691905D01*
X109347143Y-99891905D01*
X109080476Y-99891905D01*
X109004286Y-99930000D01*
X108966190Y-99968095D01*
X108928095Y-100044286D01*
X108928095Y-100120476D01*
X108966190Y-100196667D01*
X109004286Y-100234762D01*
X109080476Y-100272857D01*
X109347143Y-100272857D01*
D12*
X110942381Y-32281905D02*
X109942381Y-32281905D01*
X109942381Y-32662858D01*
X109990000Y-32758096D01*
X110037619Y-32805715D01*
X110132857Y-32853334D01*
X110275714Y-32853334D01*
X110370952Y-32805715D01*
X110418571Y-32758096D01*
X110466190Y-32662858D01*
X110466190Y-32281905D01*
X110942381Y-33805715D02*
X110942381Y-33234286D01*
X110942381Y-33520000D02*
X109942381Y-33520000D01*
X110085238Y-33424762D01*
X110180476Y-33329524D01*
X110228095Y-33234286D01*
X60142381Y-32281905D02*
X59142381Y-32281905D01*
X59142381Y-32662858D01*
X59190000Y-32758096D01*
X59237619Y-32805715D01*
X59332857Y-32853334D01*
X59475714Y-32853334D01*
X59570952Y-32805715D01*
X59618571Y-32758096D01*
X59666190Y-32662858D01*
X59666190Y-32281905D01*
X59142381Y-33186667D02*
X59142381Y-33805715D01*
X59523333Y-33472381D01*
X59523333Y-33615239D01*
X59570952Y-33710477D01*
X59618571Y-33758096D01*
X59713810Y-33805715D01*
X59951905Y-33805715D01*
X60047143Y-33758096D01*
X60094762Y-33710477D01*
X60142381Y-33615239D01*
X60142381Y-33329524D01*
X60094762Y-33234286D01*
X60047143Y-33186667D01*
M02*
