M48
INCH,TZ
T1C0.025
T2C0.031
T3C0.040
T4C0.047
%
G90
G05
T1
X30500Y-32000
T2
X31213Y-37000
X32000Y-37000
X32787Y-37000
T3
X23000Y-14500
X23000Y-15500
X23000Y-16500
X23000Y-17500
X23000Y-18500
X23000Y-19500
X23000Y-20500
X23000Y-21500
X23000Y-22500
X23000Y-23500
X23000Y-24500
X23000Y-25500
X23000Y-26500
X23000Y-27500
X23000Y-28500
X23000Y-29500
X23000Y-30500
X23000Y-31500
X23000Y-32500
X23000Y-33500
X23000Y-34500
X23000Y-35500
X23000Y-36500
X23000Y-37500
X23000Y-38500
X24000Y-14500
X24000Y-15500
X24000Y-16500
X24000Y-17500
X24000Y-18500
X24000Y-19500
X24000Y-20500
X24000Y-21500
X24000Y-22500
X24000Y-23500
X24000Y-24500
X24000Y-25500
X24000Y-26500
X24000Y-27500
X24000Y-28500
X24000Y-29500
X24000Y-30500
X24000Y-31500
X24000Y-32500
X24000Y-33500
X24000Y-34500
X24000Y-35500
X24000Y-36500
X24000Y-37500
X24000Y-38500
X27000Y-14500
X27000Y-15500
X27000Y-16500
X27000Y-17500
X27000Y-18500
X27000Y-19500
X27000Y-20500
X27000Y-21500
X27000Y-22500
X27000Y-23500
X27000Y-24500
X27000Y-25500
X27000Y-26500
X27000Y-27500
X27000Y-28500
X27000Y-29500
X27000Y-30500
X27000Y-31500
X27000Y-32500
X27000Y-33500
X40000Y-14500
X40000Y-15500
X40000Y-16500
X40000Y-17500
X40000Y-18500
X40000Y-19500
X40000Y-20500
X40000Y-21500
X40000Y-22500
X40000Y-23500
X40000Y-24500
X40000Y-25500
X40000Y-26500
X40000Y-27500
X40000Y-28500
X40000Y-29500
X40000Y-30500
X40000Y-31500
X40000Y-32500
X40000Y-33500
X43000Y-14500
X43000Y-15500
X43000Y-16500
X43000Y-17500
X43000Y-18500
X43000Y-19500
X43000Y-20500
X43000Y-21500
X43000Y-22500
X43000Y-23500
X43000Y-24500
X43000Y-25500
X43000Y-26500
X43000Y-27500
X43000Y-28500
X43000Y-29500
X43000Y-30500
X43000Y-31500
X43000Y-32500
X43000Y-33500
X43000Y-34500
X43000Y-35500
X43000Y-36500
X43000Y-37500
X43000Y-38500
X44000Y-14500
X44000Y-15500
X44000Y-16500
X44000Y-17500
X44000Y-18500
X44000Y-19500
X44000Y-20500
X44000Y-21500
X44000Y-22500
X44000Y-23500
X44000Y-24500
X44000Y-25500
X44000Y-26500
X44000Y-27500
X44000Y-28500
X44000Y-29500
X44000Y-30500
X44000Y-31500
X44000Y-32500
X44000Y-33500
X44000Y-34500
X44000Y-35500
X44000Y-36500
X44000Y-37500
X44000Y-38500
T4
X36000Y-38000
X36984Y-36031
X37969Y-38000
X38953Y-36031
T0
M30
