G04 #@! TF.FileFunction,Copper,L1,Top,Signal*
%FSLAX46Y46*%
G04 Gerber Fmt 4.6, Leading zero omitted, Abs format (unit mm)*
G04 Created by KiCad (PCBNEW (2015-01-16 BZR 5376)-product) date 5/29/2015 7:58:35 PM*
%MOMM*%
G01*
G04 APERTURE LIST*
%ADD10C,0.100000*%
%ADD11R,1.500000X1.250000*%
%ADD12R,1.727200X1.727200*%
%ADD13O,1.727200X1.727200*%
%ADD14C,3.000000*%
%ADD15R,2.032000X1.727200*%
%ADD16O,2.032000X1.727200*%
%ADD17C,1.400000*%
%ADD18R,1.500000X1.300000*%
%ADD19C,0.889000*%
%ADD20C,0.254000*%
G04 APERTURE END LIST*
D10*
D11*
X73680000Y-85090000D03*
X76180000Y-85090000D03*
D12*
X111760000Y-36830000D03*
D13*
X109220000Y-36830000D03*
X111760000Y-39370000D03*
X109220000Y-39370000D03*
X111760000Y-41910000D03*
X109220000Y-41910000D03*
X111760000Y-44450000D03*
X109220000Y-44450000D03*
X111760000Y-46990000D03*
X109220000Y-46990000D03*
X111760000Y-49530000D03*
X109220000Y-49530000D03*
X111760000Y-52070000D03*
X109220000Y-52070000D03*
X111760000Y-54610000D03*
X109220000Y-54610000D03*
X111760000Y-57150000D03*
X109220000Y-57150000D03*
X111760000Y-59690000D03*
X109220000Y-59690000D03*
X111760000Y-62230000D03*
X109220000Y-62230000D03*
X111760000Y-64770000D03*
X109220000Y-64770000D03*
X111760000Y-67310000D03*
X109220000Y-67310000D03*
X111760000Y-69850000D03*
X109220000Y-69850000D03*
X111760000Y-72390000D03*
X109220000Y-72390000D03*
X111760000Y-74930000D03*
X109220000Y-74930000D03*
X111760000Y-77470000D03*
X109220000Y-77470000D03*
X111760000Y-80010000D03*
X109220000Y-80010000D03*
X111760000Y-82550000D03*
X109220000Y-82550000D03*
X111760000Y-85090000D03*
X109220000Y-85090000D03*
X111760000Y-87630000D03*
X109220000Y-87630000D03*
X111760000Y-90170000D03*
X109220000Y-90170000D03*
X111760000Y-92710000D03*
X109220000Y-92710000D03*
X111760000Y-95250000D03*
X109220000Y-95250000D03*
X111760000Y-97790000D03*
X109220000Y-97790000D03*
D14*
X98939360Y-91518740D03*
X96440000Y-96520000D03*
X91440000Y-96520000D03*
X93939360Y-91518740D03*
D12*
X60960000Y-36830000D03*
D13*
X58420000Y-36830000D03*
X60960000Y-39370000D03*
X58420000Y-39370000D03*
X60960000Y-41910000D03*
X58420000Y-41910000D03*
X60960000Y-44450000D03*
X58420000Y-44450000D03*
X60960000Y-46990000D03*
X58420000Y-46990000D03*
X60960000Y-49530000D03*
X58420000Y-49530000D03*
X60960000Y-52070000D03*
X58420000Y-52070000D03*
X60960000Y-54610000D03*
X58420000Y-54610000D03*
X60960000Y-57150000D03*
X58420000Y-57150000D03*
X60960000Y-59690000D03*
X58420000Y-59690000D03*
X60960000Y-62230000D03*
X58420000Y-62230000D03*
X60960000Y-64770000D03*
X58420000Y-64770000D03*
X60960000Y-67310000D03*
X58420000Y-67310000D03*
X60960000Y-69850000D03*
X58420000Y-69850000D03*
X60960000Y-72390000D03*
X58420000Y-72390000D03*
X60960000Y-74930000D03*
X58420000Y-74930000D03*
X60960000Y-77470000D03*
X58420000Y-77470000D03*
X60960000Y-80010000D03*
X58420000Y-80010000D03*
X60960000Y-82550000D03*
X58420000Y-82550000D03*
X60960000Y-85090000D03*
X58420000Y-85090000D03*
X60960000Y-87630000D03*
X58420000Y-87630000D03*
X60960000Y-90170000D03*
X58420000Y-90170000D03*
X60960000Y-92710000D03*
X58420000Y-92710000D03*
X60960000Y-95250000D03*
X58420000Y-95250000D03*
X60960000Y-97790000D03*
X58420000Y-97790000D03*
D15*
X68580000Y-36830000D03*
D16*
X68580000Y-39370000D03*
X68580000Y-41910000D03*
X68580000Y-44450000D03*
X68580000Y-46990000D03*
X68580000Y-49530000D03*
X68580000Y-52070000D03*
X68580000Y-54610000D03*
X68580000Y-57150000D03*
X68580000Y-59690000D03*
X68580000Y-62230000D03*
X68580000Y-64770000D03*
X68580000Y-67310000D03*
X68580000Y-69850000D03*
X68580000Y-72390000D03*
X68580000Y-74930000D03*
X68580000Y-77470000D03*
X68580000Y-80010000D03*
X68580000Y-82550000D03*
X68580000Y-85090000D03*
D15*
X101600000Y-36830000D03*
D16*
X101600000Y-39370000D03*
X101600000Y-41910000D03*
X101600000Y-44450000D03*
X101600000Y-46990000D03*
X101600000Y-49530000D03*
X101600000Y-52070000D03*
X101600000Y-54610000D03*
X101600000Y-57150000D03*
X101600000Y-59690000D03*
X101600000Y-62230000D03*
X101600000Y-64770000D03*
X101600000Y-67310000D03*
X101600000Y-69850000D03*
X101600000Y-72390000D03*
X101600000Y-74930000D03*
X101600000Y-77470000D03*
X101600000Y-80010000D03*
X101600000Y-82550000D03*
X101600000Y-85090000D03*
D17*
X81280000Y-93980000D03*
X83280000Y-93980000D03*
X79280000Y-93980000D03*
D18*
X82630000Y-85090000D03*
X79930000Y-85090000D03*
D19*
X77470000Y-81280000D03*
D20*
X76180000Y-82570000D02*
X77470000Y-81280000D01*
X76180000Y-85090000D02*
X76180000Y-82570000D01*
X109220000Y-54610000D02*
X107975100Y-54610000D01*
X68580000Y-59690000D02*
X68580000Y-58445100D01*
X68580000Y-58445100D02*
X104140000Y-58445100D01*
X104140000Y-58445100D02*
X107975100Y-54610000D01*
X111760000Y-82550000D02*
X111760000Y-81305100D01*
X68580000Y-67310000D02*
X68580000Y-68554900D01*
X68580000Y-68554900D02*
X69824900Y-68554900D01*
X69824900Y-68554900D02*
X80035000Y-78765000D01*
X80035000Y-78765000D02*
X109796400Y-78765000D01*
X109796400Y-78765000D02*
X110490000Y-79458600D01*
X110490000Y-79458600D02*
X110490000Y-80550900D01*
X110490000Y-80550900D02*
X111244200Y-81305100D01*
X111244200Y-81305100D02*
X111760000Y-81305100D01*
X109220000Y-82550000D02*
X107975100Y-82550000D01*
X68580000Y-69850000D02*
X68580000Y-71094900D01*
X68580000Y-71094900D02*
X69824900Y-71094900D01*
X69824900Y-71094900D02*
X80010000Y-81280000D01*
X80010000Y-81280000D02*
X106705100Y-81280000D01*
X106705100Y-81280000D02*
X107975100Y-82550000D01*
X93939400Y-91518700D02*
X91440000Y-94018100D01*
X91440000Y-94018100D02*
X91440000Y-96520000D01*
X93939400Y-91080700D02*
X93939400Y-91518700D01*
X79930000Y-85090000D02*
X79930000Y-86121300D01*
X79930000Y-86121300D02*
X75881300Y-90170000D01*
X75881300Y-90170000D02*
X60960000Y-90170000D01*
X81280000Y-93980000D02*
X81280000Y-86440000D01*
X81280000Y-86440000D02*
X82630000Y-85090000D01*
G36*
X114173000Y-101473000D02*
X113271040Y-101473000D01*
X113271040Y-37693600D01*
X113271040Y-35966400D01*
X113224063Y-35724277D01*
X113084273Y-35511473D01*
X112873240Y-35369023D01*
X112623600Y-35318960D01*
X110896400Y-35318960D01*
X110654277Y-35365937D01*
X110441473Y-35505727D01*
X110299023Y-35716760D01*
X110290820Y-35757659D01*
X110279670Y-35740971D01*
X109793489Y-35416115D01*
X109220000Y-35302041D01*
X108646511Y-35416115D01*
X108160330Y-35740971D01*
X107835474Y-36227152D01*
X107721400Y-36800641D01*
X107721400Y-36859359D01*
X107835474Y-37432848D01*
X108160330Y-37919029D01*
X108431172Y-38100000D01*
X108160330Y-38280971D01*
X107835474Y-38767152D01*
X107721400Y-39340641D01*
X107721400Y-39399359D01*
X107835474Y-39972848D01*
X108160330Y-40459029D01*
X108431172Y-40640000D01*
X108160330Y-40820971D01*
X107835474Y-41307152D01*
X107721400Y-41880641D01*
X107721400Y-41939359D01*
X107835474Y-42512848D01*
X108160330Y-42999029D01*
X108431172Y-43180000D01*
X108160330Y-43360971D01*
X107835474Y-43847152D01*
X107721400Y-44420641D01*
X107721400Y-44479359D01*
X107835474Y-45052848D01*
X108160330Y-45539029D01*
X108431172Y-45720000D01*
X108160330Y-45900971D01*
X107835474Y-46387152D01*
X107721400Y-46960641D01*
X107721400Y-47019359D01*
X107835474Y-47592848D01*
X108160330Y-48079029D01*
X108431172Y-48260000D01*
X108160330Y-48440971D01*
X107835474Y-48927152D01*
X107721400Y-49500641D01*
X107721400Y-49559359D01*
X107835474Y-50132848D01*
X108160330Y-50619029D01*
X108431172Y-50800000D01*
X108160330Y-50980971D01*
X107835474Y-51467152D01*
X107721400Y-52040641D01*
X107721400Y-52099359D01*
X107835474Y-52672848D01*
X108160330Y-53159029D01*
X108431172Y-53340000D01*
X108160330Y-53520971D01*
X107936714Y-53855635D01*
X107683495Y-53906004D01*
X107436284Y-54071185D01*
X103824369Y-57683100D01*
X103177304Y-57683100D01*
X103283345Y-57150000D01*
X103169271Y-56576511D01*
X102844415Y-56090330D01*
X102529634Y-55880000D01*
X102844415Y-55669670D01*
X103169271Y-55183489D01*
X103283345Y-54610000D01*
X103169271Y-54036511D01*
X102844415Y-53550330D01*
X102529634Y-53340000D01*
X102844415Y-53129670D01*
X103169271Y-52643489D01*
X103283345Y-52070000D01*
X103169271Y-51496511D01*
X102844415Y-51010330D01*
X102529634Y-50800000D01*
X102844415Y-50589670D01*
X103169271Y-50103489D01*
X103283345Y-49530000D01*
X103169271Y-48956511D01*
X102844415Y-48470330D01*
X102529634Y-48260000D01*
X102844415Y-48049670D01*
X103169271Y-47563489D01*
X103283345Y-46990000D01*
X103169271Y-46416511D01*
X102844415Y-45930330D01*
X102529634Y-45720000D01*
X102844415Y-45509670D01*
X103169271Y-45023489D01*
X103283345Y-44450000D01*
X103169271Y-43876511D01*
X102844415Y-43390330D01*
X102529634Y-43180000D01*
X102844415Y-42969670D01*
X103169271Y-42483489D01*
X103283345Y-41910000D01*
X103169271Y-41336511D01*
X102844415Y-40850330D01*
X102529634Y-40640000D01*
X102844415Y-40429670D01*
X103169271Y-39943489D01*
X103283345Y-39370000D01*
X103169271Y-38796511D01*
X102844415Y-38310330D01*
X102828632Y-38299784D01*
X102858123Y-38294063D01*
X103070927Y-38154273D01*
X103213377Y-37943240D01*
X103263440Y-37693600D01*
X103263440Y-35966400D01*
X103216463Y-35724277D01*
X103076673Y-35511473D01*
X102865640Y-35369023D01*
X102616000Y-35318960D01*
X100584000Y-35318960D01*
X100341877Y-35365937D01*
X100129073Y-35505727D01*
X99986623Y-35716760D01*
X99936560Y-35966400D01*
X99936560Y-37693600D01*
X99983537Y-37935723D01*
X100123327Y-38148527D01*
X100334360Y-38290977D01*
X100372962Y-38298718D01*
X100355585Y-38310330D01*
X100030729Y-38796511D01*
X99916655Y-39370000D01*
X100030729Y-39943489D01*
X100355585Y-40429670D01*
X100670365Y-40640000D01*
X100355585Y-40850330D01*
X100030729Y-41336511D01*
X99916655Y-41910000D01*
X100030729Y-42483489D01*
X100355585Y-42969670D01*
X100670365Y-43180000D01*
X100355585Y-43390330D01*
X100030729Y-43876511D01*
X99916655Y-44450000D01*
X100030729Y-45023489D01*
X100355585Y-45509670D01*
X100670365Y-45720000D01*
X100355585Y-45930330D01*
X100030729Y-46416511D01*
X99916655Y-46990000D01*
X100030729Y-47563489D01*
X100355585Y-48049670D01*
X100670365Y-48260000D01*
X100355585Y-48470330D01*
X100030729Y-48956511D01*
X99916655Y-49530000D01*
X100030729Y-50103489D01*
X100355585Y-50589670D01*
X100670365Y-50800000D01*
X100355585Y-51010330D01*
X100030729Y-51496511D01*
X99916655Y-52070000D01*
X100030729Y-52643489D01*
X100355585Y-53129670D01*
X100670365Y-53340000D01*
X100355585Y-53550330D01*
X100030729Y-54036511D01*
X99916655Y-54610000D01*
X100030729Y-55183489D01*
X100355585Y-55669670D01*
X100670365Y-55880000D01*
X100355585Y-56090330D01*
X100030729Y-56576511D01*
X99916655Y-57150000D01*
X100022695Y-57683100D01*
X70157304Y-57683100D01*
X70263345Y-57150000D01*
X70149271Y-56576511D01*
X69824415Y-56090330D01*
X69509634Y-55880000D01*
X69824415Y-55669670D01*
X70149271Y-55183489D01*
X70263345Y-54610000D01*
X70149271Y-54036511D01*
X69824415Y-53550330D01*
X69509634Y-53340000D01*
X69824415Y-53129670D01*
X70149271Y-52643489D01*
X70263345Y-52070000D01*
X70149271Y-51496511D01*
X69824415Y-51010330D01*
X69509634Y-50800000D01*
X69824415Y-50589670D01*
X70149271Y-50103489D01*
X70263345Y-49530000D01*
X70149271Y-48956511D01*
X69824415Y-48470330D01*
X69509634Y-48260000D01*
X69824415Y-48049670D01*
X70149271Y-47563489D01*
X70263345Y-46990000D01*
X70149271Y-46416511D01*
X69824415Y-45930330D01*
X69509634Y-45720000D01*
X69824415Y-45509670D01*
X70149271Y-45023489D01*
X70263345Y-44450000D01*
X70149271Y-43876511D01*
X69824415Y-43390330D01*
X69509634Y-43180000D01*
X69824415Y-42969670D01*
X70149271Y-42483489D01*
X70263345Y-41910000D01*
X70149271Y-41336511D01*
X69824415Y-40850330D01*
X69509634Y-40640000D01*
X69824415Y-40429670D01*
X70149271Y-39943489D01*
X70263345Y-39370000D01*
X70149271Y-38796511D01*
X69824415Y-38310330D01*
X69808632Y-38299784D01*
X69838123Y-38294063D01*
X70050927Y-38154273D01*
X70193377Y-37943240D01*
X70243440Y-37693600D01*
X70243440Y-35966400D01*
X70196463Y-35724277D01*
X70056673Y-35511473D01*
X69845640Y-35369023D01*
X69596000Y-35318960D01*
X67564000Y-35318960D01*
X67321877Y-35365937D01*
X67109073Y-35505727D01*
X66966623Y-35716760D01*
X66916560Y-35966400D01*
X66916560Y-37693600D01*
X66963537Y-37935723D01*
X67103327Y-38148527D01*
X67314360Y-38290977D01*
X67352962Y-38298718D01*
X67335585Y-38310330D01*
X67010729Y-38796511D01*
X66896655Y-39370000D01*
X67010729Y-39943489D01*
X67335585Y-40429670D01*
X67650365Y-40640000D01*
X67335585Y-40850330D01*
X67010729Y-41336511D01*
X66896655Y-41910000D01*
X67010729Y-42483489D01*
X67335585Y-42969670D01*
X67650365Y-43180000D01*
X67335585Y-43390330D01*
X67010729Y-43876511D01*
X66896655Y-44450000D01*
X67010729Y-45023489D01*
X67335585Y-45509670D01*
X67650365Y-45720000D01*
X67335585Y-45930330D01*
X67010729Y-46416511D01*
X66896655Y-46990000D01*
X67010729Y-47563489D01*
X67335585Y-48049670D01*
X67650365Y-48260000D01*
X67335585Y-48470330D01*
X67010729Y-48956511D01*
X66896655Y-49530000D01*
X67010729Y-50103489D01*
X67335585Y-50589670D01*
X67650365Y-50800000D01*
X67335585Y-51010330D01*
X67010729Y-51496511D01*
X66896655Y-52070000D01*
X67010729Y-52643489D01*
X67335585Y-53129670D01*
X67650365Y-53340000D01*
X67335585Y-53550330D01*
X67010729Y-54036511D01*
X66896655Y-54610000D01*
X67010729Y-55183489D01*
X67335585Y-55669670D01*
X67650365Y-55880000D01*
X67335585Y-56090330D01*
X67010729Y-56576511D01*
X66896655Y-57150000D01*
X67010729Y-57723489D01*
X67335585Y-58209670D01*
X67650365Y-58420000D01*
X67335585Y-58630330D01*
X67010729Y-59116511D01*
X66896655Y-59690000D01*
X67010729Y-60263489D01*
X67335585Y-60749670D01*
X67650365Y-60960000D01*
X67335585Y-61170330D01*
X67010729Y-61656511D01*
X66896655Y-62230000D01*
X67010729Y-62803489D01*
X67335585Y-63289670D01*
X67650365Y-63500000D01*
X67335585Y-63710330D01*
X67010729Y-64196511D01*
X66896655Y-64770000D01*
X67010729Y-65343489D01*
X67335585Y-65829670D01*
X67650365Y-66040000D01*
X67335585Y-66250330D01*
X67010729Y-66736511D01*
X66896655Y-67310000D01*
X67010729Y-67883489D01*
X67335585Y-68369670D01*
X67650365Y-68580000D01*
X67335585Y-68790330D01*
X67010729Y-69276511D01*
X66896655Y-69850000D01*
X67010729Y-70423489D01*
X67335585Y-70909670D01*
X67650365Y-71120000D01*
X67335585Y-71330330D01*
X67010729Y-71816511D01*
X66896655Y-72390000D01*
X67010729Y-72963489D01*
X67335585Y-73449670D01*
X67650365Y-73660000D01*
X67335585Y-73870330D01*
X67010729Y-74356511D01*
X66896655Y-74930000D01*
X67010729Y-75503489D01*
X67335585Y-75989670D01*
X67650365Y-76200000D01*
X67335585Y-76410330D01*
X67010729Y-76896511D01*
X66896655Y-77470000D01*
X67010729Y-78043489D01*
X67335585Y-78529670D01*
X67650365Y-78740000D01*
X67335585Y-78950330D01*
X67010729Y-79436511D01*
X66896655Y-80010000D01*
X67010729Y-80583489D01*
X67335585Y-81069670D01*
X67645069Y-81276460D01*
X67229268Y-81647964D01*
X66975291Y-82175209D01*
X66972642Y-82190974D01*
X67093783Y-82423000D01*
X68453000Y-82423000D01*
X68453000Y-82403000D01*
X68707000Y-82403000D01*
X68707000Y-82423000D01*
X70066217Y-82423000D01*
X70187358Y-82190974D01*
X70184709Y-82175209D01*
X69930732Y-81647964D01*
X69514930Y-81276460D01*
X69824415Y-81069670D01*
X70149271Y-80583489D01*
X70263345Y-80010000D01*
X70149271Y-79436511D01*
X69824415Y-78950330D01*
X69509634Y-78740000D01*
X69824415Y-78529670D01*
X70149271Y-78043489D01*
X70263345Y-77470000D01*
X70149271Y-76896511D01*
X69824415Y-76410330D01*
X69509634Y-76200000D01*
X69824415Y-75989670D01*
X70149271Y-75503489D01*
X70263345Y-74930000D01*
X70149271Y-74356511D01*
X69824415Y-73870330D01*
X69509634Y-73660000D01*
X69824415Y-73449670D01*
X70149271Y-72963489D01*
X70226682Y-72574312D01*
X77971918Y-80319549D01*
X77685668Y-80200687D01*
X77256216Y-80200313D01*
X76859311Y-80364311D01*
X76555378Y-80667714D01*
X76390687Y-81064332D01*
X76390497Y-81281871D01*
X75641185Y-82031185D01*
X75476004Y-82278395D01*
X75418000Y-82570000D01*
X75418000Y-83819888D01*
X75187877Y-83864537D01*
X74975073Y-84004327D01*
X74931662Y-84068637D01*
X74789698Y-83926673D01*
X74556309Y-83830000D01*
X73965750Y-83830000D01*
X73807000Y-83988750D01*
X73807000Y-84963000D01*
X73827000Y-84963000D01*
X73827000Y-85217000D01*
X73807000Y-85217000D01*
X73807000Y-86191250D01*
X73965750Y-86350000D01*
X74556309Y-86350000D01*
X74789698Y-86253327D01*
X74931176Y-86111849D01*
X74969327Y-86169927D01*
X75180360Y-86312377D01*
X75430000Y-86362440D01*
X76930000Y-86362440D01*
X77172123Y-86315463D01*
X77384927Y-86175673D01*
X77527377Y-85964640D01*
X77577440Y-85715000D01*
X77577440Y-84465000D01*
X77530463Y-84222877D01*
X77390673Y-84010073D01*
X77179640Y-83867623D01*
X76942000Y-83819966D01*
X76942000Y-82885630D01*
X77468131Y-82359499D01*
X77683784Y-82359687D01*
X78080689Y-82195689D01*
X78384622Y-81892286D01*
X78549313Y-81495668D01*
X78549687Y-81066216D01*
X78430759Y-80778390D01*
X79471185Y-81818816D01*
X79718395Y-81983996D01*
X79718396Y-81983997D01*
X80010000Y-82042000D01*
X100017702Y-82042000D01*
X99916655Y-82550000D01*
X100030729Y-83123489D01*
X100355585Y-83609670D01*
X100670365Y-83820000D01*
X100355585Y-84030330D01*
X100030729Y-84516511D01*
X99916655Y-85090000D01*
X100030729Y-85663489D01*
X100355585Y-86149670D01*
X100841766Y-86474526D01*
X101415255Y-86588600D01*
X101784745Y-86588600D01*
X102358234Y-86474526D01*
X102844415Y-86149670D01*
X103169271Y-85663489D01*
X103283345Y-85090000D01*
X103169271Y-84516511D01*
X102844415Y-84030330D01*
X102529634Y-83820000D01*
X102844415Y-83609670D01*
X103169271Y-83123489D01*
X103283345Y-82550000D01*
X103182297Y-82042000D01*
X106389469Y-82042000D01*
X107436284Y-83088815D01*
X107436285Y-83088815D01*
X107683495Y-83253996D01*
X107936714Y-83304364D01*
X108160330Y-83639029D01*
X108431172Y-83820000D01*
X108160330Y-84000971D01*
X107835474Y-84487152D01*
X107721400Y-85060641D01*
X107721400Y-85119359D01*
X107835474Y-85692848D01*
X108160330Y-86179029D01*
X108431172Y-86360000D01*
X108160330Y-86540971D01*
X107835474Y-87027152D01*
X107721400Y-87600641D01*
X107721400Y-87659359D01*
X107835474Y-88232848D01*
X108160330Y-88719029D01*
X108431172Y-88900000D01*
X108160330Y-89080971D01*
X107835474Y-89567152D01*
X107721400Y-90140641D01*
X107721400Y-90199359D01*
X107835474Y-90772848D01*
X108160330Y-91259029D01*
X108431172Y-91440000D01*
X108160330Y-91620971D01*
X107835474Y-92107152D01*
X107721400Y-92680641D01*
X107721400Y-92739359D01*
X107835474Y-93312848D01*
X108160330Y-93799029D01*
X108431172Y-93980000D01*
X108160330Y-94160971D01*
X107835474Y-94647152D01*
X107721400Y-95220641D01*
X107721400Y-95279359D01*
X107835474Y-95852848D01*
X108160330Y-96339029D01*
X108431172Y-96520000D01*
X108160330Y-96700971D01*
X107835474Y-97187152D01*
X107721400Y-97760641D01*
X107721400Y-97819359D01*
X107835474Y-98392848D01*
X108160330Y-98879029D01*
X108646511Y-99203885D01*
X109220000Y-99317959D01*
X109793489Y-99203885D01*
X110279670Y-98879029D01*
X110490000Y-98564248D01*
X110700330Y-98879029D01*
X111186511Y-99203885D01*
X111760000Y-99317959D01*
X112333489Y-99203885D01*
X112819670Y-98879029D01*
X113144526Y-98392848D01*
X113258600Y-97819359D01*
X113258600Y-97760641D01*
X113144526Y-97187152D01*
X112819670Y-96700971D01*
X112548827Y-96520000D01*
X112819670Y-96339029D01*
X113144526Y-95852848D01*
X113258600Y-95279359D01*
X113258600Y-95220641D01*
X113144526Y-94647152D01*
X112819670Y-94160971D01*
X112548827Y-93980000D01*
X112819670Y-93799029D01*
X113144526Y-93312848D01*
X113258600Y-92739359D01*
X113258600Y-92680641D01*
X113144526Y-92107152D01*
X112819670Y-91620971D01*
X112548827Y-91440000D01*
X112819670Y-91259029D01*
X113144526Y-90772848D01*
X113258600Y-90199359D01*
X113258600Y-90140641D01*
X113144526Y-89567152D01*
X112819670Y-89080971D01*
X112548827Y-88900000D01*
X112819670Y-88719029D01*
X113144526Y-88232848D01*
X113258600Y-87659359D01*
X113258600Y-87600641D01*
X113144526Y-87027152D01*
X112819670Y-86540971D01*
X112548827Y-86360000D01*
X112819670Y-86179029D01*
X113144526Y-85692848D01*
X113258600Y-85119359D01*
X113258600Y-85060641D01*
X113144526Y-84487152D01*
X112819670Y-84000971D01*
X112548827Y-83820000D01*
X112819670Y-83639029D01*
X113144526Y-83152848D01*
X113258600Y-82579359D01*
X113258600Y-82520641D01*
X113144526Y-81947152D01*
X112819670Y-81460971D01*
X112548827Y-81280000D01*
X112819670Y-81099029D01*
X113144526Y-80612848D01*
X113258600Y-80039359D01*
X113258600Y-79980641D01*
X113144526Y-79407152D01*
X112819670Y-78920971D01*
X112548827Y-78740000D01*
X112819670Y-78559029D01*
X113144526Y-78072848D01*
X113258600Y-77499359D01*
X113258600Y-77440641D01*
X113144526Y-76867152D01*
X112819670Y-76380971D01*
X112548827Y-76200000D01*
X112819670Y-76019029D01*
X113144526Y-75532848D01*
X113258600Y-74959359D01*
X113258600Y-74900641D01*
X113144526Y-74327152D01*
X112819670Y-73840971D01*
X112548827Y-73660000D01*
X112819670Y-73479029D01*
X113144526Y-72992848D01*
X113258600Y-72419359D01*
X113258600Y-72360641D01*
X113144526Y-71787152D01*
X112819670Y-71300971D01*
X112548827Y-71120000D01*
X112819670Y-70939029D01*
X113144526Y-70452848D01*
X113258600Y-69879359D01*
X113258600Y-69820641D01*
X113144526Y-69247152D01*
X112819670Y-68760971D01*
X112548827Y-68580000D01*
X112819670Y-68399029D01*
X113144526Y-67912848D01*
X113258600Y-67339359D01*
X113258600Y-67280641D01*
X113144526Y-66707152D01*
X112819670Y-66220971D01*
X112548827Y-66040000D01*
X112819670Y-65859029D01*
X113144526Y-65372848D01*
X113258600Y-64799359D01*
X113258600Y-64740641D01*
X113144526Y-64167152D01*
X112819670Y-63680971D01*
X112548827Y-63500000D01*
X112819670Y-63319029D01*
X113144526Y-62832848D01*
X113258600Y-62259359D01*
X113258600Y-62200641D01*
X113144526Y-61627152D01*
X112819670Y-61140971D01*
X112548827Y-60960000D01*
X112819670Y-60779029D01*
X113144526Y-60292848D01*
X113258600Y-59719359D01*
X113258600Y-59660641D01*
X113144526Y-59087152D01*
X112819670Y-58600971D01*
X112548827Y-58420000D01*
X112819670Y-58239029D01*
X113144526Y-57752848D01*
X113258600Y-57179359D01*
X113258600Y-57120641D01*
X113144526Y-56547152D01*
X112819670Y-56060971D01*
X112548827Y-55880000D01*
X112819670Y-55699029D01*
X113144526Y-55212848D01*
X113258600Y-54639359D01*
X113258600Y-54580641D01*
X113144526Y-54007152D01*
X112819670Y-53520971D01*
X112548827Y-53340000D01*
X112819670Y-53159029D01*
X113144526Y-52672848D01*
X113258600Y-52099359D01*
X113258600Y-52040641D01*
X113144526Y-51467152D01*
X112819670Y-50980971D01*
X112548827Y-50800000D01*
X112819670Y-50619029D01*
X113144526Y-50132848D01*
X113258600Y-49559359D01*
X113258600Y-49500641D01*
X113144526Y-48927152D01*
X112819670Y-48440971D01*
X112548827Y-48260000D01*
X112819670Y-48079029D01*
X113144526Y-47592848D01*
X113258600Y-47019359D01*
X113258600Y-46960641D01*
X113144526Y-46387152D01*
X112819670Y-45900971D01*
X112548827Y-45720000D01*
X112819670Y-45539029D01*
X113144526Y-45052848D01*
X113258600Y-44479359D01*
X113258600Y-44420641D01*
X113144526Y-43847152D01*
X112819670Y-43360971D01*
X112548827Y-43180000D01*
X112819670Y-42999029D01*
X113144526Y-42512848D01*
X113258600Y-41939359D01*
X113258600Y-41880641D01*
X113144526Y-41307152D01*
X112819670Y-40820971D01*
X112548827Y-40640000D01*
X112819670Y-40459029D01*
X113144526Y-39972848D01*
X113258600Y-39399359D01*
X113258600Y-39340641D01*
X113144526Y-38767152D01*
X112832699Y-38300470D01*
X112865723Y-38294063D01*
X113078527Y-38154273D01*
X113220977Y-37943240D01*
X113271040Y-37693600D01*
X113271040Y-101473000D01*
X101074730Y-101473000D01*
X101074730Y-91095925D01*
X100750380Y-90310940D01*
X100150319Y-89709831D01*
X99365901Y-89384112D01*
X98516545Y-89383370D01*
X97731560Y-89707720D01*
X97130451Y-90307781D01*
X96804732Y-91092199D01*
X96803990Y-91941555D01*
X97128340Y-92726540D01*
X97728401Y-93327649D01*
X98512819Y-93653368D01*
X99362175Y-93654110D01*
X100147160Y-93329760D01*
X100748269Y-92729699D01*
X101073988Y-91945281D01*
X101074730Y-91095925D01*
X101074730Y-101473000D01*
X98575370Y-101473000D01*
X98575370Y-96097185D01*
X98251020Y-95312200D01*
X97650959Y-94711091D01*
X96866541Y-94385372D01*
X96074730Y-94384680D01*
X96074730Y-91095925D01*
X95750380Y-90310940D01*
X95150319Y-89709831D01*
X94365901Y-89384112D01*
X93516545Y-89383370D01*
X92731560Y-89707720D01*
X92130451Y-90307781D01*
X91804732Y-91092199D01*
X91803990Y-91941555D01*
X91989630Y-92390838D01*
X90901185Y-93479285D01*
X90736004Y-93726495D01*
X90678000Y-94018100D01*
X90678000Y-94524778D01*
X90232200Y-94708980D01*
X89631091Y-95309041D01*
X89305372Y-96093459D01*
X89304630Y-96942815D01*
X89628980Y-97727800D01*
X90229041Y-98328909D01*
X91013459Y-98654628D01*
X91862815Y-98655370D01*
X92647800Y-98331020D01*
X93248909Y-97730959D01*
X93574628Y-96946541D01*
X93575370Y-96097185D01*
X93251020Y-95312200D01*
X92650959Y-94711091D01*
X92202000Y-94524666D01*
X92202000Y-94333730D01*
X93067341Y-93468389D01*
X93512819Y-93653368D01*
X94362175Y-93654110D01*
X95147160Y-93329760D01*
X95748269Y-92729699D01*
X96073988Y-91945281D01*
X96074730Y-91095925D01*
X96074730Y-94384680D01*
X96017185Y-94384630D01*
X95232200Y-94708980D01*
X94631091Y-95309041D01*
X94305372Y-96093459D01*
X94304630Y-96942815D01*
X94628980Y-97727800D01*
X95229041Y-98328909D01*
X96013459Y-98654628D01*
X96862815Y-98655370D01*
X97647800Y-98331020D01*
X98248909Y-97730959D01*
X98574628Y-96946541D01*
X98575370Y-96097185D01*
X98575370Y-101473000D01*
X84615231Y-101473000D01*
X84615231Y-93715617D01*
X84412418Y-93224771D01*
X84037204Y-92848902D01*
X83546713Y-92645232D01*
X83015617Y-92644769D01*
X82524771Y-92847582D01*
X82279902Y-93092023D01*
X82042000Y-92853706D01*
X82042000Y-86755630D01*
X82410190Y-86387440D01*
X83380000Y-86387440D01*
X83622123Y-86340463D01*
X83834927Y-86200673D01*
X83977377Y-85989640D01*
X84027440Y-85740000D01*
X84027440Y-84440000D01*
X83980463Y-84197877D01*
X83840673Y-83985073D01*
X83629640Y-83842623D01*
X83380000Y-83792560D01*
X81880000Y-83792560D01*
X81637877Y-83839537D01*
X81425073Y-83979327D01*
X81282623Y-84190360D01*
X81280783Y-84199530D01*
X81280463Y-84197877D01*
X81140673Y-83985073D01*
X80929640Y-83842623D01*
X80680000Y-83792560D01*
X79180000Y-83792560D01*
X78937877Y-83839537D01*
X78725073Y-83979327D01*
X78582623Y-84190360D01*
X78532560Y-84440000D01*
X78532560Y-85740000D01*
X78579537Y-85982123D01*
X78719327Y-86194927D01*
X78754798Y-86218870D01*
X75565669Y-89408000D01*
X73553000Y-89408000D01*
X73553000Y-86191250D01*
X73553000Y-85217000D01*
X73553000Y-84963000D01*
X73553000Y-83988750D01*
X73394250Y-83830000D01*
X72803691Y-83830000D01*
X72570302Y-83926673D01*
X72391673Y-84105301D01*
X72295000Y-84338690D01*
X72295000Y-84591309D01*
X72295000Y-84804250D01*
X72453750Y-84963000D01*
X73553000Y-84963000D01*
X73553000Y-85217000D01*
X72453750Y-85217000D01*
X72295000Y-85375750D01*
X72295000Y-85588691D01*
X72295000Y-85841310D01*
X72391673Y-86074699D01*
X72570302Y-86253327D01*
X72803691Y-86350000D01*
X73394250Y-86350000D01*
X73553000Y-86191250D01*
X73553000Y-89408000D01*
X70187358Y-89408000D01*
X70187358Y-85449026D01*
X70187358Y-84730974D01*
X70184709Y-84715209D01*
X69930732Y-84187964D01*
X69518891Y-83820000D01*
X69930732Y-83452036D01*
X70184709Y-82924791D01*
X70187358Y-82909026D01*
X70066217Y-82677000D01*
X68707000Y-82677000D01*
X68707000Y-83749076D01*
X68707000Y-83890924D01*
X68707000Y-84963000D01*
X70066217Y-84963000D01*
X70187358Y-84730974D01*
X70187358Y-85449026D01*
X70066217Y-85217000D01*
X68707000Y-85217000D01*
X68707000Y-86430924D01*
X68941913Y-86575184D01*
X69494320Y-86381954D01*
X69930732Y-85992036D01*
X70184709Y-85464791D01*
X70187358Y-85449026D01*
X70187358Y-89408000D01*
X68453000Y-89408000D01*
X68453000Y-86430924D01*
X68453000Y-85217000D01*
X68453000Y-84963000D01*
X68453000Y-83890924D01*
X68453000Y-83749076D01*
X68453000Y-82677000D01*
X67093783Y-82677000D01*
X66972642Y-82909026D01*
X66975291Y-82924791D01*
X67229268Y-83452036D01*
X67641108Y-83820000D01*
X67229268Y-84187964D01*
X66975291Y-84715209D01*
X66972642Y-84730974D01*
X67093783Y-84963000D01*
X68453000Y-84963000D01*
X68453000Y-85217000D01*
X67093783Y-85217000D01*
X66972642Y-85449026D01*
X66975291Y-85464791D01*
X67229268Y-85992036D01*
X67665680Y-86381954D01*
X68218087Y-86575184D01*
X68453000Y-86430924D01*
X68453000Y-89408000D01*
X62238183Y-89408000D01*
X62019670Y-89080971D01*
X61748827Y-88900000D01*
X62019670Y-88719029D01*
X62344526Y-88232848D01*
X62458600Y-87659359D01*
X62458600Y-87600641D01*
X62344526Y-87027152D01*
X62019670Y-86540971D01*
X61748827Y-86360000D01*
X62019670Y-86179029D01*
X62344526Y-85692848D01*
X62458600Y-85119359D01*
X62458600Y-85060641D01*
X62344526Y-84487152D01*
X62019670Y-84000971D01*
X61748827Y-83820000D01*
X62019670Y-83639029D01*
X62344526Y-83152848D01*
X62458600Y-82579359D01*
X62458600Y-82520641D01*
X62344526Y-81947152D01*
X62019670Y-81460971D01*
X61748827Y-81280000D01*
X62019670Y-81099029D01*
X62344526Y-80612848D01*
X62458600Y-80039359D01*
X62458600Y-79980641D01*
X62344526Y-79407152D01*
X62019670Y-78920971D01*
X61748827Y-78740000D01*
X62019670Y-78559029D01*
X62344526Y-78072848D01*
X62458600Y-77499359D01*
X62458600Y-77440641D01*
X62344526Y-76867152D01*
X62019670Y-76380971D01*
X61748827Y-76200000D01*
X62019670Y-76019029D01*
X62344526Y-75532848D01*
X62458600Y-74959359D01*
X62458600Y-74900641D01*
X62344526Y-74327152D01*
X62019670Y-73840971D01*
X61748827Y-73660000D01*
X62019670Y-73479029D01*
X62344526Y-72992848D01*
X62458600Y-72419359D01*
X62458600Y-72360641D01*
X62344526Y-71787152D01*
X62019670Y-71300971D01*
X61748827Y-71120000D01*
X62019670Y-70939029D01*
X62344526Y-70452848D01*
X62458600Y-69879359D01*
X62458600Y-69820641D01*
X62344526Y-69247152D01*
X62019670Y-68760971D01*
X61748827Y-68580000D01*
X62019670Y-68399029D01*
X62344526Y-67912848D01*
X62458600Y-67339359D01*
X62458600Y-67280641D01*
X62344526Y-66707152D01*
X62019670Y-66220971D01*
X61748827Y-66040000D01*
X62019670Y-65859029D01*
X62344526Y-65372848D01*
X62458600Y-64799359D01*
X62458600Y-64740641D01*
X62344526Y-64167152D01*
X62019670Y-63680971D01*
X61748827Y-63500000D01*
X62019670Y-63319029D01*
X62344526Y-62832848D01*
X62458600Y-62259359D01*
X62458600Y-62200641D01*
X62344526Y-61627152D01*
X62019670Y-61140971D01*
X61748827Y-60960000D01*
X62019670Y-60779029D01*
X62344526Y-60292848D01*
X62458600Y-59719359D01*
X62458600Y-59660641D01*
X62344526Y-59087152D01*
X62019670Y-58600971D01*
X61748827Y-58420000D01*
X62019670Y-58239029D01*
X62344526Y-57752848D01*
X62458600Y-57179359D01*
X62458600Y-57120641D01*
X62344526Y-56547152D01*
X62019670Y-56060971D01*
X61748827Y-55880000D01*
X62019670Y-55699029D01*
X62344526Y-55212848D01*
X62458600Y-54639359D01*
X62458600Y-54580641D01*
X62344526Y-54007152D01*
X62019670Y-53520971D01*
X61748827Y-53340000D01*
X62019670Y-53159029D01*
X62344526Y-52672848D01*
X62458600Y-52099359D01*
X62458600Y-52040641D01*
X62344526Y-51467152D01*
X62019670Y-50980971D01*
X61748827Y-50800000D01*
X62019670Y-50619029D01*
X62344526Y-50132848D01*
X62458600Y-49559359D01*
X62458600Y-49500641D01*
X62344526Y-48927152D01*
X62019670Y-48440971D01*
X61748827Y-48260000D01*
X62019670Y-48079029D01*
X62344526Y-47592848D01*
X62458600Y-47019359D01*
X62458600Y-46960641D01*
X62344526Y-46387152D01*
X62019670Y-45900971D01*
X61748827Y-45720000D01*
X62019670Y-45539029D01*
X62344526Y-45052848D01*
X62458600Y-44479359D01*
X62458600Y-44420641D01*
X62344526Y-43847152D01*
X62019670Y-43360971D01*
X61748827Y-43180000D01*
X62019670Y-42999029D01*
X62344526Y-42512848D01*
X62458600Y-41939359D01*
X62458600Y-41880641D01*
X62344526Y-41307152D01*
X62019670Y-40820971D01*
X61748827Y-40640000D01*
X62019670Y-40459029D01*
X62344526Y-39972848D01*
X62458600Y-39399359D01*
X62458600Y-39340641D01*
X62344526Y-38767152D01*
X62032699Y-38300470D01*
X62065723Y-38294063D01*
X62278527Y-38154273D01*
X62420977Y-37943240D01*
X62471040Y-37693600D01*
X62471040Y-35966400D01*
X62424063Y-35724277D01*
X62284273Y-35511473D01*
X62073240Y-35369023D01*
X61823600Y-35318960D01*
X60096400Y-35318960D01*
X59854277Y-35365937D01*
X59641473Y-35505727D01*
X59499023Y-35716760D01*
X59490820Y-35757659D01*
X59479670Y-35740971D01*
X58993489Y-35416115D01*
X58420000Y-35302041D01*
X57846511Y-35416115D01*
X57360330Y-35740971D01*
X57035474Y-36227152D01*
X56921400Y-36800641D01*
X56921400Y-36859359D01*
X57035474Y-37432848D01*
X57360330Y-37919029D01*
X57631172Y-38100000D01*
X57360330Y-38280971D01*
X57035474Y-38767152D01*
X56921400Y-39340641D01*
X56921400Y-39399359D01*
X57035474Y-39972848D01*
X57360330Y-40459029D01*
X57631160Y-40639992D01*
X57213179Y-41021510D01*
X56965032Y-41550973D01*
X57085531Y-41783000D01*
X58293000Y-41783000D01*
X58293000Y-41763000D01*
X58547000Y-41763000D01*
X58547000Y-41783000D01*
X58567000Y-41783000D01*
X58567000Y-42037000D01*
X58547000Y-42037000D01*
X58547000Y-42057000D01*
X58293000Y-42057000D01*
X58293000Y-42037000D01*
X57085531Y-42037000D01*
X56965032Y-42269027D01*
X57213179Y-42798490D01*
X57631160Y-43180007D01*
X57360330Y-43360971D01*
X57035474Y-43847152D01*
X56921400Y-44420641D01*
X56921400Y-44479359D01*
X57035474Y-45052848D01*
X57360330Y-45539029D01*
X57631172Y-45720000D01*
X57360330Y-45900971D01*
X57035474Y-46387152D01*
X56921400Y-46960641D01*
X56921400Y-47019359D01*
X57035474Y-47592848D01*
X57360330Y-48079029D01*
X57631172Y-48260000D01*
X57360330Y-48440971D01*
X57035474Y-48927152D01*
X56921400Y-49500641D01*
X56921400Y-49559359D01*
X57035474Y-50132848D01*
X57360330Y-50619029D01*
X57631172Y-50800000D01*
X57360330Y-50980971D01*
X57035474Y-51467152D01*
X56921400Y-52040641D01*
X56921400Y-52099359D01*
X57035474Y-52672848D01*
X57360330Y-53159029D01*
X57631172Y-53340000D01*
X57360330Y-53520971D01*
X57035474Y-54007152D01*
X56921400Y-54580641D01*
X56921400Y-54639359D01*
X57035474Y-55212848D01*
X57360330Y-55699029D01*
X57631172Y-55880000D01*
X57360330Y-56060971D01*
X57035474Y-56547152D01*
X56921400Y-57120641D01*
X56921400Y-57179359D01*
X57035474Y-57752848D01*
X57360330Y-58239029D01*
X57631172Y-58420000D01*
X57360330Y-58600971D01*
X57035474Y-59087152D01*
X56921400Y-59660641D01*
X56921400Y-59719359D01*
X57035474Y-60292848D01*
X57360330Y-60779029D01*
X57631172Y-60960000D01*
X57360330Y-61140971D01*
X57035474Y-61627152D01*
X56921400Y-62200641D01*
X56921400Y-62259359D01*
X57035474Y-62832848D01*
X57360330Y-63319029D01*
X57631172Y-63500000D01*
X57360330Y-63680971D01*
X57035474Y-64167152D01*
X56921400Y-64740641D01*
X56921400Y-64799359D01*
X57035474Y-65372848D01*
X57360330Y-65859029D01*
X57631172Y-66040000D01*
X57360330Y-66220971D01*
X57035474Y-66707152D01*
X56921400Y-67280641D01*
X56921400Y-67339359D01*
X57035474Y-67912848D01*
X57360330Y-68399029D01*
X57631172Y-68580000D01*
X57360330Y-68760971D01*
X57035474Y-69247152D01*
X56921400Y-69820641D01*
X56921400Y-69879359D01*
X57035474Y-70452848D01*
X57360330Y-70939029D01*
X57631172Y-71120000D01*
X57360330Y-71300971D01*
X57035474Y-71787152D01*
X56921400Y-72360641D01*
X56921400Y-72419359D01*
X57035474Y-72992848D01*
X57360330Y-73479029D01*
X57631172Y-73660000D01*
X57360330Y-73840971D01*
X57035474Y-74327152D01*
X56921400Y-74900641D01*
X56921400Y-74959359D01*
X57035474Y-75532848D01*
X57360330Y-76019029D01*
X57631172Y-76200000D01*
X57360330Y-76380971D01*
X57035474Y-76867152D01*
X56921400Y-77440641D01*
X56921400Y-77499359D01*
X57035474Y-78072848D01*
X57360330Y-78559029D01*
X57631172Y-78740000D01*
X57360330Y-78920971D01*
X57035474Y-79407152D01*
X56921400Y-79980641D01*
X56921400Y-80039359D01*
X57035474Y-80612848D01*
X57360330Y-81099029D01*
X57631172Y-81280000D01*
X57360330Y-81460971D01*
X57035474Y-81947152D01*
X56921400Y-82520641D01*
X56921400Y-82579359D01*
X57035474Y-83152848D01*
X57360330Y-83639029D01*
X57631172Y-83820000D01*
X57360330Y-84000971D01*
X57035474Y-84487152D01*
X56921400Y-85060641D01*
X56921400Y-85119359D01*
X57035474Y-85692848D01*
X57360330Y-86179029D01*
X57631172Y-86360000D01*
X57360330Y-86540971D01*
X57035474Y-87027152D01*
X56921400Y-87600641D01*
X56921400Y-87659359D01*
X57035474Y-88232848D01*
X57360330Y-88719029D01*
X57631172Y-88900000D01*
X57360330Y-89080971D01*
X57035474Y-89567152D01*
X56921400Y-90140641D01*
X56921400Y-90199359D01*
X57035474Y-90772848D01*
X57360330Y-91259029D01*
X57631172Y-91440000D01*
X57360330Y-91620971D01*
X57035474Y-92107152D01*
X56921400Y-92680641D01*
X56921400Y-92739359D01*
X57035474Y-93312848D01*
X57360330Y-93799029D01*
X57631172Y-93980000D01*
X57360330Y-94160971D01*
X57035474Y-94647152D01*
X56921400Y-95220641D01*
X56921400Y-95279359D01*
X57035474Y-95852848D01*
X57360330Y-96339029D01*
X57631172Y-96520000D01*
X57360330Y-96700971D01*
X57035474Y-97187152D01*
X56921400Y-97760641D01*
X56921400Y-97819359D01*
X57035474Y-98392848D01*
X57360330Y-98879029D01*
X57846511Y-99203885D01*
X58420000Y-99317959D01*
X58993489Y-99203885D01*
X59479670Y-98879029D01*
X59690000Y-98564248D01*
X59900330Y-98879029D01*
X60386511Y-99203885D01*
X60960000Y-99317959D01*
X61533489Y-99203885D01*
X62019670Y-98879029D01*
X62344526Y-98392848D01*
X62458600Y-97819359D01*
X62458600Y-97760641D01*
X62344526Y-97187152D01*
X62019670Y-96700971D01*
X61748827Y-96520000D01*
X62019670Y-96339029D01*
X62344526Y-95852848D01*
X62458600Y-95279359D01*
X62458600Y-95220641D01*
X62344526Y-94647152D01*
X62019670Y-94160971D01*
X61748827Y-93980000D01*
X62019670Y-93799029D01*
X62344526Y-93312848D01*
X62458600Y-92739359D01*
X62458600Y-92680641D01*
X62344526Y-92107152D01*
X62019670Y-91620971D01*
X61748827Y-91440000D01*
X62019670Y-91259029D01*
X62238183Y-90932000D01*
X75881300Y-90932000D01*
X75881300Y-90931999D01*
X76172904Y-90873996D01*
X76172905Y-90873996D01*
X76420115Y-90708815D01*
X80468815Y-86660116D01*
X80468815Y-86660115D01*
X80518000Y-86586505D01*
X80518000Y-92854341D01*
X80279902Y-93092023D01*
X80037204Y-92848902D01*
X79546713Y-92645232D01*
X79015617Y-92644769D01*
X78524771Y-92847582D01*
X78148902Y-93222796D01*
X77945232Y-93713287D01*
X77944769Y-94244383D01*
X78147582Y-94735229D01*
X78522796Y-95111098D01*
X79013287Y-95314768D01*
X79544383Y-95315231D01*
X80035229Y-95112418D01*
X80280097Y-94867976D01*
X80522796Y-95111098D01*
X81013287Y-95314768D01*
X81544383Y-95315231D01*
X82035229Y-95112418D01*
X82280097Y-94867976D01*
X82522796Y-95111098D01*
X83013287Y-95314768D01*
X83544383Y-95315231D01*
X84035229Y-95112418D01*
X84411098Y-94737204D01*
X84614768Y-94246713D01*
X84615231Y-93715617D01*
X84615231Y-101473000D01*
X56007000Y-101473000D01*
X56007000Y-33147000D01*
X114173000Y-33147000D01*
X114173000Y-101473000D01*
X114173000Y-101473000D01*
G37*
X114173000Y-101473000D02*
X113271040Y-101473000D01*
X113271040Y-37693600D01*
X113271040Y-35966400D01*
X113224063Y-35724277D01*
X113084273Y-35511473D01*
X112873240Y-35369023D01*
X112623600Y-35318960D01*
X110896400Y-35318960D01*
X110654277Y-35365937D01*
X110441473Y-35505727D01*
X110299023Y-35716760D01*
X110290820Y-35757659D01*
X110279670Y-35740971D01*
X109793489Y-35416115D01*
X109220000Y-35302041D01*
X108646511Y-35416115D01*
X108160330Y-35740971D01*
X107835474Y-36227152D01*
X107721400Y-36800641D01*
X107721400Y-36859359D01*
X107835474Y-37432848D01*
X108160330Y-37919029D01*
X108431172Y-38100000D01*
X108160330Y-38280971D01*
X107835474Y-38767152D01*
X107721400Y-39340641D01*
X107721400Y-39399359D01*
X107835474Y-39972848D01*
X108160330Y-40459029D01*
X108431172Y-40640000D01*
X108160330Y-40820971D01*
X107835474Y-41307152D01*
X107721400Y-41880641D01*
X107721400Y-41939359D01*
X107835474Y-42512848D01*
X108160330Y-42999029D01*
X108431172Y-43180000D01*
X108160330Y-43360971D01*
X107835474Y-43847152D01*
X107721400Y-44420641D01*
X107721400Y-44479359D01*
X107835474Y-45052848D01*
X108160330Y-45539029D01*
X108431172Y-45720000D01*
X108160330Y-45900971D01*
X107835474Y-46387152D01*
X107721400Y-46960641D01*
X107721400Y-47019359D01*
X107835474Y-47592848D01*
X108160330Y-48079029D01*
X108431172Y-48260000D01*
X108160330Y-48440971D01*
X107835474Y-48927152D01*
X107721400Y-49500641D01*
X107721400Y-49559359D01*
X107835474Y-50132848D01*
X108160330Y-50619029D01*
X108431172Y-50800000D01*
X108160330Y-50980971D01*
X107835474Y-51467152D01*
X107721400Y-52040641D01*
X107721400Y-52099359D01*
X107835474Y-52672848D01*
X108160330Y-53159029D01*
X108431172Y-53340000D01*
X108160330Y-53520971D01*
X107936714Y-53855635D01*
X107683495Y-53906004D01*
X107436284Y-54071185D01*
X103824369Y-57683100D01*
X103177304Y-57683100D01*
X103283345Y-57150000D01*
X103169271Y-56576511D01*
X102844415Y-56090330D01*
X102529634Y-55880000D01*
X102844415Y-55669670D01*
X103169271Y-55183489D01*
X103283345Y-54610000D01*
X103169271Y-54036511D01*
X102844415Y-53550330D01*
X102529634Y-53340000D01*
X102844415Y-53129670D01*
X103169271Y-52643489D01*
X103283345Y-52070000D01*
X103169271Y-51496511D01*
X102844415Y-51010330D01*
X102529634Y-50800000D01*
X102844415Y-50589670D01*
X103169271Y-50103489D01*
X103283345Y-49530000D01*
X103169271Y-48956511D01*
X102844415Y-48470330D01*
X102529634Y-48260000D01*
X102844415Y-48049670D01*
X103169271Y-47563489D01*
X103283345Y-46990000D01*
X103169271Y-46416511D01*
X102844415Y-45930330D01*
X102529634Y-45720000D01*
X102844415Y-45509670D01*
X103169271Y-45023489D01*
X103283345Y-44450000D01*
X103169271Y-43876511D01*
X102844415Y-43390330D01*
X102529634Y-43180000D01*
X102844415Y-42969670D01*
X103169271Y-42483489D01*
X103283345Y-41910000D01*
X103169271Y-41336511D01*
X102844415Y-40850330D01*
X102529634Y-40640000D01*
X102844415Y-40429670D01*
X103169271Y-39943489D01*
X103283345Y-39370000D01*
X103169271Y-38796511D01*
X102844415Y-38310330D01*
X102828632Y-38299784D01*
X102858123Y-38294063D01*
X103070927Y-38154273D01*
X103213377Y-37943240D01*
X103263440Y-37693600D01*
X103263440Y-35966400D01*
X103216463Y-35724277D01*
X103076673Y-35511473D01*
X102865640Y-35369023D01*
X102616000Y-35318960D01*
X100584000Y-35318960D01*
X100341877Y-35365937D01*
X100129073Y-35505727D01*
X99986623Y-35716760D01*
X99936560Y-35966400D01*
X99936560Y-37693600D01*
X99983537Y-37935723D01*
X100123327Y-38148527D01*
X100334360Y-38290977D01*
X100372962Y-38298718D01*
X100355585Y-38310330D01*
X100030729Y-38796511D01*
X99916655Y-39370000D01*
X100030729Y-39943489D01*
X100355585Y-40429670D01*
X100670365Y-40640000D01*
X100355585Y-40850330D01*
X100030729Y-41336511D01*
X99916655Y-41910000D01*
X100030729Y-42483489D01*
X100355585Y-42969670D01*
X100670365Y-43180000D01*
X100355585Y-43390330D01*
X100030729Y-43876511D01*
X99916655Y-44450000D01*
X100030729Y-45023489D01*
X100355585Y-45509670D01*
X100670365Y-45720000D01*
X100355585Y-45930330D01*
X100030729Y-46416511D01*
X99916655Y-46990000D01*
X100030729Y-47563489D01*
X100355585Y-48049670D01*
X100670365Y-48260000D01*
X100355585Y-48470330D01*
X100030729Y-48956511D01*
X99916655Y-49530000D01*
X100030729Y-50103489D01*
X100355585Y-50589670D01*
X100670365Y-50800000D01*
X100355585Y-51010330D01*
X100030729Y-51496511D01*
X99916655Y-52070000D01*
X100030729Y-52643489D01*
X100355585Y-53129670D01*
X100670365Y-53340000D01*
X100355585Y-53550330D01*
X100030729Y-54036511D01*
X99916655Y-54610000D01*
X100030729Y-55183489D01*
X100355585Y-55669670D01*
X100670365Y-55880000D01*
X100355585Y-56090330D01*
X100030729Y-56576511D01*
X99916655Y-57150000D01*
X100022695Y-57683100D01*
X70157304Y-57683100D01*
X70263345Y-57150000D01*
X70149271Y-56576511D01*
X69824415Y-56090330D01*
X69509634Y-55880000D01*
X69824415Y-55669670D01*
X70149271Y-55183489D01*
X70263345Y-54610000D01*
X70149271Y-54036511D01*
X69824415Y-53550330D01*
X69509634Y-53340000D01*
X69824415Y-53129670D01*
X70149271Y-52643489D01*
X70263345Y-52070000D01*
X70149271Y-51496511D01*
X69824415Y-51010330D01*
X69509634Y-50800000D01*
X69824415Y-50589670D01*
X70149271Y-50103489D01*
X70263345Y-49530000D01*
X70149271Y-48956511D01*
X69824415Y-48470330D01*
X69509634Y-48260000D01*
X69824415Y-48049670D01*
X70149271Y-47563489D01*
X70263345Y-46990000D01*
X70149271Y-46416511D01*
X69824415Y-45930330D01*
X69509634Y-45720000D01*
X69824415Y-45509670D01*
X70149271Y-45023489D01*
X70263345Y-44450000D01*
X70149271Y-43876511D01*
X69824415Y-43390330D01*
X69509634Y-43180000D01*
X69824415Y-42969670D01*
X70149271Y-42483489D01*
X70263345Y-41910000D01*
X70149271Y-41336511D01*
X69824415Y-40850330D01*
X69509634Y-40640000D01*
X69824415Y-40429670D01*
X70149271Y-39943489D01*
X70263345Y-39370000D01*
X70149271Y-38796511D01*
X69824415Y-38310330D01*
X69808632Y-38299784D01*
X69838123Y-38294063D01*
X70050927Y-38154273D01*
X70193377Y-37943240D01*
X70243440Y-37693600D01*
X70243440Y-35966400D01*
X70196463Y-35724277D01*
X70056673Y-35511473D01*
X69845640Y-35369023D01*
X69596000Y-35318960D01*
X67564000Y-35318960D01*
X67321877Y-35365937D01*
X67109073Y-35505727D01*
X66966623Y-35716760D01*
X66916560Y-35966400D01*
X66916560Y-37693600D01*
X66963537Y-37935723D01*
X67103327Y-38148527D01*
X67314360Y-38290977D01*
X67352962Y-38298718D01*
X67335585Y-38310330D01*
X67010729Y-38796511D01*
X66896655Y-39370000D01*
X67010729Y-39943489D01*
X67335585Y-40429670D01*
X67650365Y-40640000D01*
X67335585Y-40850330D01*
X67010729Y-41336511D01*
X66896655Y-41910000D01*
X67010729Y-42483489D01*
X67335585Y-42969670D01*
X67650365Y-43180000D01*
X67335585Y-43390330D01*
X67010729Y-43876511D01*
X66896655Y-44450000D01*
X67010729Y-45023489D01*
X67335585Y-45509670D01*
X67650365Y-45720000D01*
X67335585Y-45930330D01*
X67010729Y-46416511D01*
X66896655Y-46990000D01*
X67010729Y-47563489D01*
X67335585Y-48049670D01*
X67650365Y-48260000D01*
X67335585Y-48470330D01*
X67010729Y-48956511D01*
X66896655Y-49530000D01*
X67010729Y-50103489D01*
X67335585Y-50589670D01*
X67650365Y-50800000D01*
X67335585Y-51010330D01*
X67010729Y-51496511D01*
X66896655Y-52070000D01*
X67010729Y-52643489D01*
X67335585Y-53129670D01*
X67650365Y-53340000D01*
X67335585Y-53550330D01*
X67010729Y-54036511D01*
X66896655Y-54610000D01*
X67010729Y-55183489D01*
X67335585Y-55669670D01*
X67650365Y-55880000D01*
X67335585Y-56090330D01*
X67010729Y-56576511D01*
X66896655Y-57150000D01*
X67010729Y-57723489D01*
X67335585Y-58209670D01*
X67650365Y-58420000D01*
X67335585Y-58630330D01*
X67010729Y-59116511D01*
X66896655Y-59690000D01*
X67010729Y-60263489D01*
X67335585Y-60749670D01*
X67650365Y-60960000D01*
X67335585Y-61170330D01*
X67010729Y-61656511D01*
X66896655Y-62230000D01*
X67010729Y-62803489D01*
X67335585Y-63289670D01*
X67650365Y-63500000D01*
X67335585Y-63710330D01*
X67010729Y-64196511D01*
X66896655Y-64770000D01*
X67010729Y-65343489D01*
X67335585Y-65829670D01*
X67650365Y-66040000D01*
X67335585Y-66250330D01*
X67010729Y-66736511D01*
X66896655Y-67310000D01*
X67010729Y-67883489D01*
X67335585Y-68369670D01*
X67650365Y-68580000D01*
X67335585Y-68790330D01*
X67010729Y-69276511D01*
X66896655Y-69850000D01*
X67010729Y-70423489D01*
X67335585Y-70909670D01*
X67650365Y-71120000D01*
X67335585Y-71330330D01*
X67010729Y-71816511D01*
X66896655Y-72390000D01*
X67010729Y-72963489D01*
X67335585Y-73449670D01*
X67650365Y-73660000D01*
X67335585Y-73870330D01*
X67010729Y-74356511D01*
X66896655Y-74930000D01*
X67010729Y-75503489D01*
X67335585Y-75989670D01*
X67650365Y-76200000D01*
X67335585Y-76410330D01*
X67010729Y-76896511D01*
X66896655Y-77470000D01*
X67010729Y-78043489D01*
X67335585Y-78529670D01*
X67650365Y-78740000D01*
X67335585Y-78950330D01*
X67010729Y-79436511D01*
X66896655Y-80010000D01*
X67010729Y-80583489D01*
X67335585Y-81069670D01*
X67645069Y-81276460D01*
X67229268Y-81647964D01*
X66975291Y-82175209D01*
X66972642Y-82190974D01*
X67093783Y-82423000D01*
X68453000Y-82423000D01*
X68453000Y-82403000D01*
X68707000Y-82403000D01*
X68707000Y-82423000D01*
X70066217Y-82423000D01*
X70187358Y-82190974D01*
X70184709Y-82175209D01*
X69930732Y-81647964D01*
X69514930Y-81276460D01*
X69824415Y-81069670D01*
X70149271Y-80583489D01*
X70263345Y-80010000D01*
X70149271Y-79436511D01*
X69824415Y-78950330D01*
X69509634Y-78740000D01*
X69824415Y-78529670D01*
X70149271Y-78043489D01*
X70263345Y-77470000D01*
X70149271Y-76896511D01*
X69824415Y-76410330D01*
X69509634Y-76200000D01*
X69824415Y-75989670D01*
X70149271Y-75503489D01*
X70263345Y-74930000D01*
X70149271Y-74356511D01*
X69824415Y-73870330D01*
X69509634Y-73660000D01*
X69824415Y-73449670D01*
X70149271Y-72963489D01*
X70226682Y-72574312D01*
X77971918Y-80319549D01*
X77685668Y-80200687D01*
X77256216Y-80200313D01*
X76859311Y-80364311D01*
X76555378Y-80667714D01*
X76390687Y-81064332D01*
X76390497Y-81281871D01*
X75641185Y-82031185D01*
X75476004Y-82278395D01*
X75418000Y-82570000D01*
X75418000Y-83819888D01*
X75187877Y-83864537D01*
X74975073Y-84004327D01*
X74931662Y-84068637D01*
X74789698Y-83926673D01*
X74556309Y-83830000D01*
X73965750Y-83830000D01*
X73807000Y-83988750D01*
X73807000Y-84963000D01*
X73827000Y-84963000D01*
X73827000Y-85217000D01*
X73807000Y-85217000D01*
X73807000Y-86191250D01*
X73965750Y-86350000D01*
X74556309Y-86350000D01*
X74789698Y-86253327D01*
X74931176Y-86111849D01*
X74969327Y-86169927D01*
X75180360Y-86312377D01*
X75430000Y-86362440D01*
X76930000Y-86362440D01*
X77172123Y-86315463D01*
X77384927Y-86175673D01*
X77527377Y-85964640D01*
X77577440Y-85715000D01*
X77577440Y-84465000D01*
X77530463Y-84222877D01*
X77390673Y-84010073D01*
X77179640Y-83867623D01*
X76942000Y-83819966D01*
X76942000Y-82885630D01*
X77468131Y-82359499D01*
X77683784Y-82359687D01*
X78080689Y-82195689D01*
X78384622Y-81892286D01*
X78549313Y-81495668D01*
X78549687Y-81066216D01*
X78430759Y-80778390D01*
X79471185Y-81818816D01*
X79718395Y-81983996D01*
X79718396Y-81983997D01*
X80010000Y-82042000D01*
X100017702Y-82042000D01*
X99916655Y-82550000D01*
X100030729Y-83123489D01*
X100355585Y-83609670D01*
X100670365Y-83820000D01*
X100355585Y-84030330D01*
X100030729Y-84516511D01*
X99916655Y-85090000D01*
X100030729Y-85663489D01*
X100355585Y-86149670D01*
X100841766Y-86474526D01*
X101415255Y-86588600D01*
X101784745Y-86588600D01*
X102358234Y-86474526D01*
X102844415Y-86149670D01*
X103169271Y-85663489D01*
X103283345Y-85090000D01*
X103169271Y-84516511D01*
X102844415Y-84030330D01*
X102529634Y-83820000D01*
X102844415Y-83609670D01*
X103169271Y-83123489D01*
X103283345Y-82550000D01*
X103182297Y-82042000D01*
X106389469Y-82042000D01*
X107436284Y-83088815D01*
X107436285Y-83088815D01*
X107683495Y-83253996D01*
X107936714Y-83304364D01*
X108160330Y-83639029D01*
X108431172Y-83820000D01*
X108160330Y-84000971D01*
X107835474Y-84487152D01*
X107721400Y-85060641D01*
X107721400Y-85119359D01*
X107835474Y-85692848D01*
X108160330Y-86179029D01*
X108431172Y-86360000D01*
X108160330Y-86540971D01*
X107835474Y-87027152D01*
X107721400Y-87600641D01*
X107721400Y-87659359D01*
X107835474Y-88232848D01*
X108160330Y-88719029D01*
X108431172Y-88900000D01*
X108160330Y-89080971D01*
X107835474Y-89567152D01*
X107721400Y-90140641D01*
X107721400Y-90199359D01*
X107835474Y-90772848D01*
X108160330Y-91259029D01*
X108431172Y-91440000D01*
X108160330Y-91620971D01*
X107835474Y-92107152D01*
X107721400Y-92680641D01*
X107721400Y-92739359D01*
X107835474Y-93312848D01*
X108160330Y-93799029D01*
X108431172Y-93980000D01*
X108160330Y-94160971D01*
X107835474Y-94647152D01*
X107721400Y-95220641D01*
X107721400Y-95279359D01*
X107835474Y-95852848D01*
X108160330Y-96339029D01*
X108431172Y-96520000D01*
X108160330Y-96700971D01*
X107835474Y-97187152D01*
X107721400Y-97760641D01*
X107721400Y-97819359D01*
X107835474Y-98392848D01*
X108160330Y-98879029D01*
X108646511Y-99203885D01*
X109220000Y-99317959D01*
X109793489Y-99203885D01*
X110279670Y-98879029D01*
X110490000Y-98564248D01*
X110700330Y-98879029D01*
X111186511Y-99203885D01*
X111760000Y-99317959D01*
X112333489Y-99203885D01*
X112819670Y-98879029D01*
X113144526Y-98392848D01*
X113258600Y-97819359D01*
X113258600Y-97760641D01*
X113144526Y-97187152D01*
X112819670Y-96700971D01*
X112548827Y-96520000D01*
X112819670Y-96339029D01*
X113144526Y-95852848D01*
X113258600Y-95279359D01*
X113258600Y-95220641D01*
X113144526Y-94647152D01*
X112819670Y-94160971D01*
X112548827Y-93980000D01*
X112819670Y-93799029D01*
X113144526Y-93312848D01*
X113258600Y-92739359D01*
X113258600Y-92680641D01*
X113144526Y-92107152D01*
X112819670Y-91620971D01*
X112548827Y-91440000D01*
X112819670Y-91259029D01*
X113144526Y-90772848D01*
X113258600Y-90199359D01*
X113258600Y-90140641D01*
X113144526Y-89567152D01*
X112819670Y-89080971D01*
X112548827Y-88900000D01*
X112819670Y-88719029D01*
X113144526Y-88232848D01*
X113258600Y-87659359D01*
X113258600Y-87600641D01*
X113144526Y-87027152D01*
X112819670Y-86540971D01*
X112548827Y-86360000D01*
X112819670Y-86179029D01*
X113144526Y-85692848D01*
X113258600Y-85119359D01*
X113258600Y-85060641D01*
X113144526Y-84487152D01*
X112819670Y-84000971D01*
X112548827Y-83820000D01*
X112819670Y-83639029D01*
X113144526Y-83152848D01*
X113258600Y-82579359D01*
X113258600Y-82520641D01*
X113144526Y-81947152D01*
X112819670Y-81460971D01*
X112548827Y-81280000D01*
X112819670Y-81099029D01*
X113144526Y-80612848D01*
X113258600Y-80039359D01*
X113258600Y-79980641D01*
X113144526Y-79407152D01*
X112819670Y-78920971D01*
X112548827Y-78740000D01*
X112819670Y-78559029D01*
X113144526Y-78072848D01*
X113258600Y-77499359D01*
X113258600Y-77440641D01*
X113144526Y-76867152D01*
X112819670Y-76380971D01*
X112548827Y-76200000D01*
X112819670Y-76019029D01*
X113144526Y-75532848D01*
X113258600Y-74959359D01*
X113258600Y-74900641D01*
X113144526Y-74327152D01*
X112819670Y-73840971D01*
X112548827Y-73660000D01*
X112819670Y-73479029D01*
X113144526Y-72992848D01*
X113258600Y-72419359D01*
X113258600Y-72360641D01*
X113144526Y-71787152D01*
X112819670Y-71300971D01*
X112548827Y-71120000D01*
X112819670Y-70939029D01*
X113144526Y-70452848D01*
X113258600Y-69879359D01*
X113258600Y-69820641D01*
X113144526Y-69247152D01*
X112819670Y-68760971D01*
X112548827Y-68580000D01*
X112819670Y-68399029D01*
X113144526Y-67912848D01*
X113258600Y-67339359D01*
X113258600Y-67280641D01*
X113144526Y-66707152D01*
X112819670Y-66220971D01*
X112548827Y-66040000D01*
X112819670Y-65859029D01*
X113144526Y-65372848D01*
X113258600Y-64799359D01*
X113258600Y-64740641D01*
X113144526Y-64167152D01*
X112819670Y-63680971D01*
X112548827Y-63500000D01*
X112819670Y-63319029D01*
X113144526Y-62832848D01*
X113258600Y-62259359D01*
X113258600Y-62200641D01*
X113144526Y-61627152D01*
X112819670Y-61140971D01*
X112548827Y-60960000D01*
X112819670Y-60779029D01*
X113144526Y-60292848D01*
X113258600Y-59719359D01*
X113258600Y-59660641D01*
X113144526Y-59087152D01*
X112819670Y-58600971D01*
X112548827Y-58420000D01*
X112819670Y-58239029D01*
X113144526Y-57752848D01*
X113258600Y-57179359D01*
X113258600Y-57120641D01*
X113144526Y-56547152D01*
X112819670Y-56060971D01*
X112548827Y-55880000D01*
X112819670Y-55699029D01*
X113144526Y-55212848D01*
X113258600Y-54639359D01*
X113258600Y-54580641D01*
X113144526Y-54007152D01*
X112819670Y-53520971D01*
X112548827Y-53340000D01*
X112819670Y-53159029D01*
X113144526Y-52672848D01*
X113258600Y-52099359D01*
X113258600Y-52040641D01*
X113144526Y-51467152D01*
X112819670Y-50980971D01*
X112548827Y-50800000D01*
X112819670Y-50619029D01*
X113144526Y-50132848D01*
X113258600Y-49559359D01*
X113258600Y-49500641D01*
X113144526Y-48927152D01*
X112819670Y-48440971D01*
X112548827Y-48260000D01*
X112819670Y-48079029D01*
X113144526Y-47592848D01*
X113258600Y-47019359D01*
X113258600Y-46960641D01*
X113144526Y-46387152D01*
X112819670Y-45900971D01*
X112548827Y-45720000D01*
X112819670Y-45539029D01*
X113144526Y-45052848D01*
X113258600Y-44479359D01*
X113258600Y-44420641D01*
X113144526Y-43847152D01*
X112819670Y-43360971D01*
X112548827Y-43180000D01*
X112819670Y-42999029D01*
X113144526Y-42512848D01*
X113258600Y-41939359D01*
X113258600Y-41880641D01*
X113144526Y-41307152D01*
X112819670Y-40820971D01*
X112548827Y-40640000D01*
X112819670Y-40459029D01*
X113144526Y-39972848D01*
X113258600Y-39399359D01*
X113258600Y-39340641D01*
X113144526Y-38767152D01*
X112832699Y-38300470D01*
X112865723Y-38294063D01*
X113078527Y-38154273D01*
X113220977Y-37943240D01*
X113271040Y-37693600D01*
X113271040Y-101473000D01*
X101074730Y-101473000D01*
X101074730Y-91095925D01*
X100750380Y-90310940D01*
X100150319Y-89709831D01*
X99365901Y-89384112D01*
X98516545Y-89383370D01*
X97731560Y-89707720D01*
X97130451Y-90307781D01*
X96804732Y-91092199D01*
X96803990Y-91941555D01*
X97128340Y-92726540D01*
X97728401Y-93327649D01*
X98512819Y-93653368D01*
X99362175Y-93654110D01*
X100147160Y-93329760D01*
X100748269Y-92729699D01*
X101073988Y-91945281D01*
X101074730Y-91095925D01*
X101074730Y-101473000D01*
X98575370Y-101473000D01*
X98575370Y-96097185D01*
X98251020Y-95312200D01*
X97650959Y-94711091D01*
X96866541Y-94385372D01*
X96074730Y-94384680D01*
X96074730Y-91095925D01*
X95750380Y-90310940D01*
X95150319Y-89709831D01*
X94365901Y-89384112D01*
X93516545Y-89383370D01*
X92731560Y-89707720D01*
X92130451Y-90307781D01*
X91804732Y-91092199D01*
X91803990Y-91941555D01*
X91989630Y-92390838D01*
X90901185Y-93479285D01*
X90736004Y-93726495D01*
X90678000Y-94018100D01*
X90678000Y-94524778D01*
X90232200Y-94708980D01*
X89631091Y-95309041D01*
X89305372Y-96093459D01*
X89304630Y-96942815D01*
X89628980Y-97727800D01*
X90229041Y-98328909D01*
X91013459Y-98654628D01*
X91862815Y-98655370D01*
X92647800Y-98331020D01*
X93248909Y-97730959D01*
X93574628Y-96946541D01*
X93575370Y-96097185D01*
X93251020Y-95312200D01*
X92650959Y-94711091D01*
X92202000Y-94524666D01*
X92202000Y-94333730D01*
X93067341Y-93468389D01*
X93512819Y-93653368D01*
X94362175Y-93654110D01*
X95147160Y-93329760D01*
X95748269Y-92729699D01*
X96073988Y-91945281D01*
X96074730Y-91095925D01*
X96074730Y-94384680D01*
X96017185Y-94384630D01*
X95232200Y-94708980D01*
X94631091Y-95309041D01*
X94305372Y-96093459D01*
X94304630Y-96942815D01*
X94628980Y-97727800D01*
X95229041Y-98328909D01*
X96013459Y-98654628D01*
X96862815Y-98655370D01*
X97647800Y-98331020D01*
X98248909Y-97730959D01*
X98574628Y-96946541D01*
X98575370Y-96097185D01*
X98575370Y-101473000D01*
X84615231Y-101473000D01*
X84615231Y-93715617D01*
X84412418Y-93224771D01*
X84037204Y-92848902D01*
X83546713Y-92645232D01*
X83015617Y-92644769D01*
X82524771Y-92847582D01*
X82279902Y-93092023D01*
X82042000Y-92853706D01*
X82042000Y-86755630D01*
X82410190Y-86387440D01*
X83380000Y-86387440D01*
X83622123Y-86340463D01*
X83834927Y-86200673D01*
X83977377Y-85989640D01*
X84027440Y-85740000D01*
X84027440Y-84440000D01*
X83980463Y-84197877D01*
X83840673Y-83985073D01*
X83629640Y-83842623D01*
X83380000Y-83792560D01*
X81880000Y-83792560D01*
X81637877Y-83839537D01*
X81425073Y-83979327D01*
X81282623Y-84190360D01*
X81280783Y-84199530D01*
X81280463Y-84197877D01*
X81140673Y-83985073D01*
X80929640Y-83842623D01*
X80680000Y-83792560D01*
X79180000Y-83792560D01*
X78937877Y-83839537D01*
X78725073Y-83979327D01*
X78582623Y-84190360D01*
X78532560Y-84440000D01*
X78532560Y-85740000D01*
X78579537Y-85982123D01*
X78719327Y-86194927D01*
X78754798Y-86218870D01*
X75565669Y-89408000D01*
X73553000Y-89408000D01*
X73553000Y-86191250D01*
X73553000Y-85217000D01*
X73553000Y-84963000D01*
X73553000Y-83988750D01*
X73394250Y-83830000D01*
X72803691Y-83830000D01*
X72570302Y-83926673D01*
X72391673Y-84105301D01*
X72295000Y-84338690D01*
X72295000Y-84591309D01*
X72295000Y-84804250D01*
X72453750Y-84963000D01*
X73553000Y-84963000D01*
X73553000Y-85217000D01*
X72453750Y-85217000D01*
X72295000Y-85375750D01*
X72295000Y-85588691D01*
X72295000Y-85841310D01*
X72391673Y-86074699D01*
X72570302Y-86253327D01*
X72803691Y-86350000D01*
X73394250Y-86350000D01*
X73553000Y-86191250D01*
X73553000Y-89408000D01*
X70187358Y-89408000D01*
X70187358Y-85449026D01*
X70187358Y-84730974D01*
X70184709Y-84715209D01*
X69930732Y-84187964D01*
X69518891Y-83820000D01*
X69930732Y-83452036D01*
X70184709Y-82924791D01*
X70187358Y-82909026D01*
X70066217Y-82677000D01*
X68707000Y-82677000D01*
X68707000Y-83749076D01*
X68707000Y-83890924D01*
X68707000Y-84963000D01*
X70066217Y-84963000D01*
X70187358Y-84730974D01*
X70187358Y-85449026D01*
X70066217Y-85217000D01*
X68707000Y-85217000D01*
X68707000Y-86430924D01*
X68941913Y-86575184D01*
X69494320Y-86381954D01*
X69930732Y-85992036D01*
X70184709Y-85464791D01*
X70187358Y-85449026D01*
X70187358Y-89408000D01*
X68453000Y-89408000D01*
X68453000Y-86430924D01*
X68453000Y-85217000D01*
X68453000Y-84963000D01*
X68453000Y-83890924D01*
X68453000Y-83749076D01*
X68453000Y-82677000D01*
X67093783Y-82677000D01*
X66972642Y-82909026D01*
X66975291Y-82924791D01*
X67229268Y-83452036D01*
X67641108Y-83820000D01*
X67229268Y-84187964D01*
X66975291Y-84715209D01*
X66972642Y-84730974D01*
X67093783Y-84963000D01*
X68453000Y-84963000D01*
X68453000Y-85217000D01*
X67093783Y-85217000D01*
X66972642Y-85449026D01*
X66975291Y-85464791D01*
X67229268Y-85992036D01*
X67665680Y-86381954D01*
X68218087Y-86575184D01*
X68453000Y-86430924D01*
X68453000Y-89408000D01*
X62238183Y-89408000D01*
X62019670Y-89080971D01*
X61748827Y-88900000D01*
X62019670Y-88719029D01*
X62344526Y-88232848D01*
X62458600Y-87659359D01*
X62458600Y-87600641D01*
X62344526Y-87027152D01*
X62019670Y-86540971D01*
X61748827Y-86360000D01*
X62019670Y-86179029D01*
X62344526Y-85692848D01*
X62458600Y-85119359D01*
X62458600Y-85060641D01*
X62344526Y-84487152D01*
X62019670Y-84000971D01*
X61748827Y-83820000D01*
X62019670Y-83639029D01*
X62344526Y-83152848D01*
X62458600Y-82579359D01*
X62458600Y-82520641D01*
X62344526Y-81947152D01*
X62019670Y-81460971D01*
X61748827Y-81280000D01*
X62019670Y-81099029D01*
X62344526Y-80612848D01*
X62458600Y-80039359D01*
X62458600Y-79980641D01*
X62344526Y-79407152D01*
X62019670Y-78920971D01*
X61748827Y-78740000D01*
X62019670Y-78559029D01*
X62344526Y-78072848D01*
X62458600Y-77499359D01*
X62458600Y-77440641D01*
X62344526Y-76867152D01*
X62019670Y-76380971D01*
X61748827Y-76200000D01*
X62019670Y-76019029D01*
X62344526Y-75532848D01*
X62458600Y-74959359D01*
X62458600Y-74900641D01*
X62344526Y-74327152D01*
X62019670Y-73840971D01*
X61748827Y-73660000D01*
X62019670Y-73479029D01*
X62344526Y-72992848D01*
X62458600Y-72419359D01*
X62458600Y-72360641D01*
X62344526Y-71787152D01*
X62019670Y-71300971D01*
X61748827Y-71120000D01*
X62019670Y-70939029D01*
X62344526Y-70452848D01*
X62458600Y-69879359D01*
X62458600Y-69820641D01*
X62344526Y-69247152D01*
X62019670Y-68760971D01*
X61748827Y-68580000D01*
X62019670Y-68399029D01*
X62344526Y-67912848D01*
X62458600Y-67339359D01*
X62458600Y-67280641D01*
X62344526Y-66707152D01*
X62019670Y-66220971D01*
X61748827Y-66040000D01*
X62019670Y-65859029D01*
X62344526Y-65372848D01*
X62458600Y-64799359D01*
X62458600Y-64740641D01*
X62344526Y-64167152D01*
X62019670Y-63680971D01*
X61748827Y-63500000D01*
X62019670Y-63319029D01*
X62344526Y-62832848D01*
X62458600Y-62259359D01*
X62458600Y-62200641D01*
X62344526Y-61627152D01*
X62019670Y-61140971D01*
X61748827Y-60960000D01*
X62019670Y-60779029D01*
X62344526Y-60292848D01*
X62458600Y-59719359D01*
X62458600Y-59660641D01*
X62344526Y-59087152D01*
X62019670Y-58600971D01*
X61748827Y-58420000D01*
X62019670Y-58239029D01*
X62344526Y-57752848D01*
X62458600Y-57179359D01*
X62458600Y-57120641D01*
X62344526Y-56547152D01*
X62019670Y-56060971D01*
X61748827Y-55880000D01*
X62019670Y-55699029D01*
X62344526Y-55212848D01*
X62458600Y-54639359D01*
X62458600Y-54580641D01*
X62344526Y-54007152D01*
X62019670Y-53520971D01*
X61748827Y-53340000D01*
X62019670Y-53159029D01*
X62344526Y-52672848D01*
X62458600Y-52099359D01*
X62458600Y-52040641D01*
X62344526Y-51467152D01*
X62019670Y-50980971D01*
X61748827Y-50800000D01*
X62019670Y-50619029D01*
X62344526Y-50132848D01*
X62458600Y-49559359D01*
X62458600Y-49500641D01*
X62344526Y-48927152D01*
X62019670Y-48440971D01*
X61748827Y-48260000D01*
X62019670Y-48079029D01*
X62344526Y-47592848D01*
X62458600Y-47019359D01*
X62458600Y-46960641D01*
X62344526Y-46387152D01*
X62019670Y-45900971D01*
X61748827Y-45720000D01*
X62019670Y-45539029D01*
X62344526Y-45052848D01*
X62458600Y-44479359D01*
X62458600Y-44420641D01*
X62344526Y-43847152D01*
X62019670Y-43360971D01*
X61748827Y-43180000D01*
X62019670Y-42999029D01*
X62344526Y-42512848D01*
X62458600Y-41939359D01*
X62458600Y-41880641D01*
X62344526Y-41307152D01*
X62019670Y-40820971D01*
X61748827Y-40640000D01*
X62019670Y-40459029D01*
X62344526Y-39972848D01*
X62458600Y-39399359D01*
X62458600Y-39340641D01*
X62344526Y-38767152D01*
X62032699Y-38300470D01*
X62065723Y-38294063D01*
X62278527Y-38154273D01*
X62420977Y-37943240D01*
X62471040Y-37693600D01*
X62471040Y-35966400D01*
X62424063Y-35724277D01*
X62284273Y-35511473D01*
X62073240Y-35369023D01*
X61823600Y-35318960D01*
X60096400Y-35318960D01*
X59854277Y-35365937D01*
X59641473Y-35505727D01*
X59499023Y-35716760D01*
X59490820Y-35757659D01*
X59479670Y-35740971D01*
X58993489Y-35416115D01*
X58420000Y-35302041D01*
X57846511Y-35416115D01*
X57360330Y-35740971D01*
X57035474Y-36227152D01*
X56921400Y-36800641D01*
X56921400Y-36859359D01*
X57035474Y-37432848D01*
X57360330Y-37919029D01*
X57631172Y-38100000D01*
X57360330Y-38280971D01*
X57035474Y-38767152D01*
X56921400Y-39340641D01*
X56921400Y-39399359D01*
X57035474Y-39972848D01*
X57360330Y-40459029D01*
X57631160Y-40639992D01*
X57213179Y-41021510D01*
X56965032Y-41550973D01*
X57085531Y-41783000D01*
X58293000Y-41783000D01*
X58293000Y-41763000D01*
X58547000Y-41763000D01*
X58547000Y-41783000D01*
X58567000Y-41783000D01*
X58567000Y-42037000D01*
X58547000Y-42037000D01*
X58547000Y-42057000D01*
X58293000Y-42057000D01*
X58293000Y-42037000D01*
X57085531Y-42037000D01*
X56965032Y-42269027D01*
X57213179Y-42798490D01*
X57631160Y-43180007D01*
X57360330Y-43360971D01*
X57035474Y-43847152D01*
X56921400Y-44420641D01*
X56921400Y-44479359D01*
X57035474Y-45052848D01*
X57360330Y-45539029D01*
X57631172Y-45720000D01*
X57360330Y-45900971D01*
X57035474Y-46387152D01*
X56921400Y-46960641D01*
X56921400Y-47019359D01*
X57035474Y-47592848D01*
X57360330Y-48079029D01*
X57631172Y-48260000D01*
X57360330Y-48440971D01*
X57035474Y-48927152D01*
X56921400Y-49500641D01*
X56921400Y-49559359D01*
X57035474Y-50132848D01*
X57360330Y-50619029D01*
X57631172Y-50800000D01*
X57360330Y-50980971D01*
X57035474Y-51467152D01*
X56921400Y-52040641D01*
X56921400Y-52099359D01*
X57035474Y-52672848D01*
X57360330Y-53159029D01*
X57631172Y-53340000D01*
X57360330Y-53520971D01*
X57035474Y-54007152D01*
X56921400Y-54580641D01*
X56921400Y-54639359D01*
X57035474Y-55212848D01*
X57360330Y-55699029D01*
X57631172Y-55880000D01*
X57360330Y-56060971D01*
X57035474Y-56547152D01*
X56921400Y-57120641D01*
X56921400Y-57179359D01*
X57035474Y-57752848D01*
X57360330Y-58239029D01*
X57631172Y-58420000D01*
X57360330Y-58600971D01*
X57035474Y-59087152D01*
X56921400Y-59660641D01*
X56921400Y-59719359D01*
X57035474Y-60292848D01*
X57360330Y-60779029D01*
X57631172Y-60960000D01*
X57360330Y-61140971D01*
X57035474Y-61627152D01*
X56921400Y-62200641D01*
X56921400Y-62259359D01*
X57035474Y-62832848D01*
X57360330Y-63319029D01*
X57631172Y-63500000D01*
X57360330Y-63680971D01*
X57035474Y-64167152D01*
X56921400Y-64740641D01*
X56921400Y-64799359D01*
X57035474Y-65372848D01*
X57360330Y-65859029D01*
X57631172Y-66040000D01*
X57360330Y-66220971D01*
X57035474Y-66707152D01*
X56921400Y-67280641D01*
X56921400Y-67339359D01*
X57035474Y-67912848D01*
X57360330Y-68399029D01*
X57631172Y-68580000D01*
X57360330Y-68760971D01*
X57035474Y-69247152D01*
X56921400Y-69820641D01*
X56921400Y-69879359D01*
X57035474Y-70452848D01*
X57360330Y-70939029D01*
X57631172Y-71120000D01*
X57360330Y-71300971D01*
X57035474Y-71787152D01*
X56921400Y-72360641D01*
X56921400Y-72419359D01*
X57035474Y-72992848D01*
X57360330Y-73479029D01*
X57631172Y-73660000D01*
X57360330Y-73840971D01*
X57035474Y-74327152D01*
X56921400Y-74900641D01*
X56921400Y-74959359D01*
X57035474Y-75532848D01*
X57360330Y-76019029D01*
X57631172Y-76200000D01*
X57360330Y-76380971D01*
X57035474Y-76867152D01*
X56921400Y-77440641D01*
X56921400Y-77499359D01*
X57035474Y-78072848D01*
X57360330Y-78559029D01*
X57631172Y-78740000D01*
X57360330Y-78920971D01*
X57035474Y-79407152D01*
X56921400Y-79980641D01*
X56921400Y-80039359D01*
X57035474Y-80612848D01*
X57360330Y-81099029D01*
X57631172Y-81280000D01*
X57360330Y-81460971D01*
X57035474Y-81947152D01*
X56921400Y-82520641D01*
X56921400Y-82579359D01*
X57035474Y-83152848D01*
X57360330Y-83639029D01*
X57631172Y-83820000D01*
X57360330Y-84000971D01*
X57035474Y-84487152D01*
X56921400Y-85060641D01*
X56921400Y-85119359D01*
X57035474Y-85692848D01*
X57360330Y-86179029D01*
X57631172Y-86360000D01*
X57360330Y-86540971D01*
X57035474Y-87027152D01*
X56921400Y-87600641D01*
X56921400Y-87659359D01*
X57035474Y-88232848D01*
X57360330Y-88719029D01*
X57631172Y-88900000D01*
X57360330Y-89080971D01*
X57035474Y-89567152D01*
X56921400Y-90140641D01*
X56921400Y-90199359D01*
X57035474Y-90772848D01*
X57360330Y-91259029D01*
X57631172Y-91440000D01*
X57360330Y-91620971D01*
X57035474Y-92107152D01*
X56921400Y-92680641D01*
X56921400Y-92739359D01*
X57035474Y-93312848D01*
X57360330Y-93799029D01*
X57631172Y-93980000D01*
X57360330Y-94160971D01*
X57035474Y-94647152D01*
X56921400Y-95220641D01*
X56921400Y-95279359D01*
X57035474Y-95852848D01*
X57360330Y-96339029D01*
X57631172Y-96520000D01*
X57360330Y-96700971D01*
X57035474Y-97187152D01*
X56921400Y-97760641D01*
X56921400Y-97819359D01*
X57035474Y-98392848D01*
X57360330Y-98879029D01*
X57846511Y-99203885D01*
X58420000Y-99317959D01*
X58993489Y-99203885D01*
X59479670Y-98879029D01*
X59690000Y-98564248D01*
X59900330Y-98879029D01*
X60386511Y-99203885D01*
X60960000Y-99317959D01*
X61533489Y-99203885D01*
X62019670Y-98879029D01*
X62344526Y-98392848D01*
X62458600Y-97819359D01*
X62458600Y-97760641D01*
X62344526Y-97187152D01*
X62019670Y-96700971D01*
X61748827Y-96520000D01*
X62019670Y-96339029D01*
X62344526Y-95852848D01*
X62458600Y-95279359D01*
X62458600Y-95220641D01*
X62344526Y-94647152D01*
X62019670Y-94160971D01*
X61748827Y-93980000D01*
X62019670Y-93799029D01*
X62344526Y-93312848D01*
X62458600Y-92739359D01*
X62458600Y-92680641D01*
X62344526Y-92107152D01*
X62019670Y-91620971D01*
X61748827Y-91440000D01*
X62019670Y-91259029D01*
X62238183Y-90932000D01*
X75881300Y-90932000D01*
X75881300Y-90931999D01*
X76172904Y-90873996D01*
X76172905Y-90873996D01*
X76420115Y-90708815D01*
X80468815Y-86660116D01*
X80468815Y-86660115D01*
X80518000Y-86586505D01*
X80518000Y-92854341D01*
X80279902Y-93092023D01*
X80037204Y-92848902D01*
X79546713Y-92645232D01*
X79015617Y-92644769D01*
X78524771Y-92847582D01*
X78148902Y-93222796D01*
X77945232Y-93713287D01*
X77944769Y-94244383D01*
X78147582Y-94735229D01*
X78522796Y-95111098D01*
X79013287Y-95314768D01*
X79544383Y-95315231D01*
X80035229Y-95112418D01*
X80280097Y-94867976D01*
X80522796Y-95111098D01*
X81013287Y-95314768D01*
X81544383Y-95315231D01*
X82035229Y-95112418D01*
X82280097Y-94867976D01*
X82522796Y-95111098D01*
X83013287Y-95314768D01*
X83544383Y-95315231D01*
X84035229Y-95112418D01*
X84411098Y-94737204D01*
X84614768Y-94246713D01*
X84615231Y-93715617D01*
X84615231Y-101473000D01*
X56007000Y-101473000D01*
X56007000Y-33147000D01*
X114173000Y-33147000D01*
X114173000Y-101473000D01*
M02*
